<?xml version="1.0" encoding="utf-8"?>
<!-- Generator: Adobe Illustrator 19.2.1, SVG Export Plug-In . SVG Version: 6.00 Build 0)  -->
<svg version="1.1" id="Layer_1" xmlns="http://www.w3.org/2000/svg" xmlns:xlink="http://www.w3.org/1999/xlink" x="0px" y="0px"
	 viewBox="0 0 575 288" style="enable-background:new 0 0 575 288;" xml:space="preserve">
<style type="text/css">
	.st0{fill:#F2F2F2;}
</style>
<title>35-nobackground</title>
<path class="st0" d="M0,0v288h575V0H0z M229.3,86.1c38.7,0,25.3-14.8,33.1-14.8c2.2,0,10.5,49.9-26.1,49.9c-30.9,0-49-21.8-49-39.8
	C187.2,79.9,195.4,86.1,229.3,86.1z M74.7,82.9c5-1.6-6.7,5.9-6.7,10.9c-0.1,3.8,2.6,7,6.4,7.5c3.9,0.7,12.5,4.2,12.5,13.6
	c0,7.5-4.3,13.9-16.5,13.9c-10,0-15.7-11-15.7-20.9C54.7,96,67.9,85.1,74.7,82.9z M73.7,214.4c-7.8-2.4-21.4-13.4-21.4-26.7
	c0-11,6.3-23.2,17.4-23.2c13.6,0,18.7,7.6,18.7,16c0,10.5-9.8,13.9-14.1,14.6c-4.2,0.6-7.2,4.2-7.1,8.4
	C67.1,208.9,79.2,216.1,73.7,214.4L73.7,214.4z M93.7,218.3c-27-1.7,0-2.9,7.9-7.7c8.7-5.3,17.6-12.4,17.6-32.3c0-17-1.3-34-37.5-34
	c-2.5,0-2.7-4.4,0-4.4c32.1,0,31.3-23.4,31.3-31.9c-0.2-11.3-7.6-21.2-18.4-24.6c-9.3-3.1-18-3.7-2.1-4.8c12-0.9,56.5-1.6,56.5,31.3
	c0,32.3-39.4,31.9-37.3,31.9s45.8,1.2,45.8,34.4C157.5,210.3,121.2,220,93.7,218.3L93.7,218.3z M192.1,212.1
	c-7.8-2.4-21.4-13.3-21.4-26.7c0-11,6.3-23.2,17.4-23.2c13.6,0,18.6,7.6,18.6,16c0,10.5-9.8,13.9-14.1,14.6
	c-4.2,0.6-7.2,4.2-7.1,8.4C185.6,206.7,197.6,213.9,192.1,212.1L192.1,212.1z M223.3,216.5c-36-0.8-18.6-2.3-13.3-3.5
	c3.8-0.8,27-3,27-39.3c0-35.3-20.5-33-28.7-33c-14.9,0-25.7,14.1-25.7,10.5s13.7-17.1,39.5-17.1c41.1,0,53.1,19,53.1,41.5
	C275.1,198.4,254,217.2,223.3,216.5L223.3,216.5z"/>
</svg>
