<?xml version="1.0" encoding="utf-8"?>
<!-- Generator: Adobe Illustrator 19.2.1, SVG Export Plug-In . SVG Version: 6.00 Build 0)  -->
<svg version="1.1" id="Layer_1" xmlns="http://www.w3.org/2000/svg" xmlns:xlink="http://www.w3.org/1999/xlink" x="0px" y="0px"
	 viewBox="0 0 940.3 618.1" style="enable-background:new 0 0 940.3 618.1;" xml:space="preserve">
<style type="text/css">
	.st0{fill:#F2F2F2;}
</style>
<title>35-nobackground-v2</title>
<path class="st0" d="M0,0v618.1h940.3V0H0z M741.3,68.8c160.2,0,105-61.3,137-61.3c9.2,0,43.7,206.7-108.2,206.7
	c-128.2,0-203.1-90.2-203.1-165C567.1,43.1,600.7,68.8,741.3,68.8z M100.7,44.9C121.4,38.3,73,69.5,73,90
	c-0.4,15.7,11,29.1,26.6,31.2c15.9,2.8,51.7,17.4,51.7,56.5c0,31.2-18,57.7-68.5,57.7c-41.6-0.1-65-45.7-65-86.7
	C17.8,99.1,72.4,53.9,100.7,44.9z M96.5,589.7C64,579.7,7.8,534.4,7.8,479c0-45.6,26.1-96.3,72.3-96.3c56.2,0,77.3,31.6,77.3,66.4
	c0,43.5-40.7,57.6-58.4,60.7C81.7,512.1,69,527,69.3,544.3c0,22.8,50.1,52.4,27.1,45.2l0,0L96.5,589.7z M179.4,605.6
	c-111.9-7.1,0-12,32.9-32c36-22,72.9-51.3,72.9-133.8c0-70.4-5.6-140.8-155.4-140.8c-10.4,0-11.2-18.4,0-18.4
	c133,0,129.8-96.9,129.8-132.2c-0.7-46.8-31.4-87.9-76.1-101.9c-38.5-12.8-74.6-15.2-8.8-20c49.7-3.6,234-6.4,234,129.8
	c0,133.8-163.4,132.2-154.6,132.2c8.8,0,189.9,4.8,189.9,142.6c0,141.7-150.6,181.8-264.3,174.6l0,0L179.4,605.6z M587.1,588.4
	c-32.5-10-88.6-55.2-88.6-110.7c0-45.6,26.1-96.3,72.3-96.3c56.2,0,77.3,31.6,77.3,66.4c0,43.5-40.7,57.6-58.4,60.7
	c-17.2,2.4-29.9,17.4-29.4,34.8c0,22.8,50.2,52.4,27.2,45.2H587.1z M716.6,606.5c-149.2-3.2-77.3-9.6-55.3-14.4
	c15.6-3.4,111.9-12.4,111.9-163c0-146.1-85-136.8-119-136.8c-61.7,0-106.5,58.3-106.5,43.7c0-14.6,56.9-70.9,163.8-70.9
	c170.3,0,219.9,78.7,219.9,171.8c0,94.3-87.7,172.4-214.7,169.6l0,0H716.6z"/>
</svg>
