<svg id="Layer_1" data-name="Layer 1" xmlns="http://www.w3.org/2000/svg" viewBox="0 0 792.11 1233.56"><defs><style>.cls-1{fill:#f5ee9b;}.cls-2{fill:#add651;}.cls-3{fill:#3fb8e1;}.cls-4{fill:#8c5099;}.cls-5{fill:#8a5dbd;}.cls-6{fill:#48b4ce;}.cls-7{fill:#a35eb5;}.cls-8{fill:#fef5c9;}.cls-9{fill:#f45a66;}.cls-10{fill:#f74853;}.cls-11{fill:#b349ae;}.cls-12{fill:#f2acda;}.cls-13{fill:#b5d5a8;}.cls-14{fill:#90bc2d;}.cls-15{fill:#58ae48;}.cls-16{fill:#eeeaba;}.cls-17{fill:#d15e61;}.cls-18{fill:#91439b;}.cls-19{fill:#52c4e3;}.cls-20{fill:#eb5e77;}.cls-21{fill:#77509e;}.cls-22{fill:#e73caa;}.cls-23{fill:#00e3d2;}.cls-24{fill:#eb5dbe;}.cls-25{fill:#d78197;}.cls-26{fill:#ff637d;}.cls-27{fill:#8ec079;}.cls-28{fill:#ffe01e;}.cls-29{fill:#eee700;}.cls-30{fill:#00bfd6;}.cls-31{fill:#cb2b99;}.cls-32{fill:#7ea86d;}.cls-33{fill:#fd5373;}.cls-34{fill:#63d0df;}.cls-35{fill:#936bad;}.cls-36{fill:#e17ec2;}.cls-37{fill:#fb6474;}.cls-38{opacity:0.5;}.cls-39{opacity:0.1;}.cls-40{opacity:0.3;}.cls-41{fill:#f9ed32;}</style></defs><title>35-years-background-vector-2</title><polygon class="cls-1" points="529.64 490.44 653.71 794.74 791.98 467.71 529.64 490.44"/><polygon class="cls-2" points="687.59 394.13 529.64 490.44 791.98 467.71 687.59 394.13"/><polygon class="cls-3" points="792 1076.54 715.25 884.67 561.25 927.1 792 1178.73 792 1076.54"/><polygon class="cls-2" points="0 1089.5 55.89 1052.05 169.81 1224 0 1224 0 1089.5"/><polygon class="cls-4" points="561.25 927 307.94 927 529.78 1120.49 561.25 927"/><polygon class="cls-5" points="0 960.24 55.89 1052.05 0 1089.5 0 960.24"/><polygon class="cls-6" points="61.27 741.64 307.94 927.1 0 866.09 0 820.07 61.27 741.64"/><polygon class="cls-7" points="335.51 615.3 82.27 547.15 221.83 659.21 335.51 615.3"/><polygon class="cls-8" points="0 402.14 164.23 382.36 82.27 547.15 0 490.44 0 402.14"/><polygon class="cls-9" points="335.51 615.3 163.69 382.47 82.27 547.15 335.51 615.3"/><polygon class="cls-10" points="687.59 394.13 399.79 356.25 529.64 490.44 687.59 394.13"/><polygon class="cls-4" points="715.24 263.36 399.79 356.25 687.59 394.13 715.24 263.36"/><polygon class="cls-11" points="0 0 6.67 0 118.98 101.6 0 97.33 0 0"/><polygon class="cls-12" points="0 356.75 121.69 301.52 0 273.62 0 356.75"/><polygon class="cls-7" points="0 141.42 121.69 301.52 0 273.62 0 141.42"/><polygon class="cls-6" points="118.98 101.6 121.69 301.52 0 141.42 0 97.33 118.98 101.6"/><polygon class="cls-13" points="0 402.14 163.69 382.47 121.69 301.52 0 356.75 0 402.14"/><polygon class="cls-14" points="510.35 145.22 237.09 44.83 399.79 356.25 510.35 145.22"/><polygon class="cls-15" points="117.56 0 237.09 44.83 118.98 101.6 6.67 0 117.56 0"/><polygon class="cls-16" points="117.56 0 217.25 0 237.09 44.83 117.56 0"/><polygon class="cls-17" points="331.42 0 237.09 44.83 217.25 0 331.42 0"/><polygon class="cls-18" points="510.35 145.22 380.93 0 331.42 0 237.09 44.83 510.35 145.22"/><polygon class="cls-19" points="792 176.52 715.24 263.36 792 273.58 792 176.52"/><polygon class="cls-13" points="732.63 0 721.62 21.68 692.94 0 732.63 0"/><polygon class="cls-20" points="721.62 21.68 792 8.77 792 0 732.63 0 721.62 21.68"/><polygon class="cls-7" points="721.62 21.68 792 110.54 792 8.77 721.62 21.68"/><polygon class="cls-8" points="715.24 263.36 721.62 21.68 792 110.54 792 176.52 715.24 263.36"/><polygon class="cls-21" points="715.24 263.36 721.62 21.68 692.94 0 564.33 0 715.24 263.36"/><polygon class="cls-22" points="687.59 394.13 791.98 467.71 715.24 263.36 687.59 394.13"/><polygon class="cls-23" points="792 467.71 715.24 263.36 792 273.58 792 467.71"/><polygon class="cls-14" points="653.73 794.74 792 671.38 792 467.71 653.73 794.74"/><polygon class="cls-24" points="792 921.03 715.26 884.67 792 1076.54 792 921.03"/><polygon class="cls-25" points="792 801.04 792 921.03 715.26 884.67 792 801.04"/><polygon class="cls-26" points="792 671.38 792 763.54 653.73 794.74 792 671.38"/><polygon class="cls-27" points="55.89 1052.05 307.94 927.1 0 866.09 0 960.24 55.89 1052.05"/><polygon class="cls-28" points="320.91 1147.63 307.94 927.1 55.89 1052.05 320.91 1147.63"/><polygon class="cls-29" points="715.24 263.36 510.35 145.22 399.79 356.25 715.24 263.36"/><polygon class="cls-25" points="564.33 0 715.24 263.36 510.35 145.22 506.41 0 564.33 0"/><polygon class="cls-30" points="399.79 356.25 118.98 101.6 121.69 301.52 399.79 356.25"/><polygon class="cls-31" points="237.09 44.83 399.79 356.25 118.98 101.6 237.09 44.83"/><polygon class="cls-32" points="335.51 615.3 529.64 490.44 399.79 356.25 335.51 615.3"/><polygon class="cls-4" points="653.71 794.74 335.51 615.3 529.64 490.44 653.71 794.74"/><polygon class="cls-33" points="399.79 356.25 163.69 382.47 121.69 301.52 399.79 356.25"/><polygon class="cls-19" points="335.51 615.3 163.69 382.47 399.79 356.25 335.51 615.3"/><polygon class="cls-28" points="335.51 615.3 221.83 659.21 307.94 927.1 335.51 615.3"/><polygon class="cls-6" points="529.78 1120.59 307.94 927.1 320.91 1147.63 529.78 1120.59"/><polygon class="cls-20" points="257.71 1224 320.91 1147.63 445.25 1224 257.71 1224"/><polygon class="cls-33" points="561.25 927 335.51 615.21 307.94 927 561.25 927"/><polygon class="cls-22" points="653.71 794.74 561.23 927.1 335.51 615.3 653.71 794.74"/><polygon class="cls-34" points="169.81 1224 55.89 1052.05 320.91 1147.63 257.71 1224 169.81 1224"/><polygon class="cls-15" points="561.25 927.1 529.78 1120.59 726.74 1224 792 1224 792 1178.73 561.25 927.1"/><polygon class="cls-35" points="529.78 1120.59 515.72 1224 726.74 1224 529.78 1120.59"/><polygon class="cls-19" points="510.35 145.22 506.41 0 380.93 0 510.35 145.22"/><polygon class="cls-1" points="653.71 794.74 715.24 884.67 561.23 927.1 653.71 794.74"/><polygon class="cls-6" points="792 801.04 715.25 884.67 653.72 794.74 792 763.54 792 801.04"/><polygon class="cls-22" points="445.25 1224 320.91 1147.63 529.78 1120.59 515.72 1224 445.25 1224"/><polygon class="cls-36" points="61.27 741.64 82.27 547.15 0 490.44 0 561.56 61.27 741.64"/><polygon class="cls-12" points="221.83 659.21 82.27 547.15 61.27 741.64 221.83 659.21"/><polygon class="cls-13" points="0 561.56 61.27 741.64 0 820.07 0 561.56"/><polygon class="cls-37" points="221.83 659.21 61.27 741.64 307.94 927.1 221.83 659.21"/><g class="cls-38"><polygon class="cls-1" points="262.36 733.56 138.29 429.26 0.02 756.29 262.36 733.56"/><polygon class="cls-2" points="104.41 829.87 262.36 733.56 0.02 756.29 104.41 829.87"/><polygon class="cls-3" points="0 147.47 76.75 339.33 230.75 296.9 0 45.27 0 147.47"/><polygon class="cls-2" points="792 134.5 736.11 171.96 622.19 0 792 0 792 134.5"/><polygon class="cls-4" points="230.75 297 484.06 297 262.22 103.51 230.75 297"/><polygon class="cls-5" points="792 263.76 736.11 171.96 792 134.5 792 263.76"/><polygon class="cls-6" points="730.73 482.36 484.06 296.9 792 357.91 792 403.93 730.73 482.36"/><polygon class="cls-7" points="456.49 608.7 709.73 676.85 570.17 564.79 456.49 608.7"/><polygon class="cls-8" points="792 821.86 627.77 841.64 709.73 676.85 792 733.56 792 821.86"/><polygon class="cls-9" points="456.49 608.7 628.31 841.53 709.73 676.85 456.49 608.7"/><polygon class="cls-10" points="104.41 829.87 392.21 867.75 262.36 733.56 104.41 829.87"/><polygon class="cls-4" points="76.76 960.64 392.21 867.75 104.41 829.87 76.76 960.64"/><polygon class="cls-11" points="792 1224 785.33 1224 673.02 1122.4 792 1126.67 792 1224"/><polygon class="cls-12" points="792 867.25 670.31 922.48 792 950.38 792 867.25"/><polygon class="cls-7" points="792 1082.58 670.31 922.48 792 950.38 792 1082.58"/><polygon class="cls-6" points="673.02 1122.4 670.31 922.48 792 1082.58 792 1126.67 673.02 1122.4"/><polygon class="cls-13" points="792 821.86 628.31 841.53 670.31 922.48 792 867.25 792 821.86"/><polygon class="cls-14" points="281.65 1078.78 554.91 1179.17 392.21 867.75 281.65 1078.78"/><polygon class="cls-15" points="674.43 1224 554.91 1179.17 673.02 1122.4 785.33 1224 674.43 1224"/><polygon class="cls-16" points="674.43 1224 574.75 1224 554.91 1179.17 674.43 1224"/><polygon class="cls-17" points="460.58 1224 554.91 1179.17 574.75 1224 460.58 1224"/><polygon class="cls-18" points="281.65 1078.78 411.07 1224 460.58 1224 554.91 1179.17 281.65 1078.78"/><polygon class="cls-19" points="0 1047.48 76.76 960.64 0 950.42 0 1047.48"/><polygon class="cls-13" points="59.38 1224 70.38 1202.33 99.06 1224 59.38 1224"/><polygon class="cls-20" points="70.38 1202.33 0 1215.23 0 1224 59.38 1224 70.38 1202.33"/><polygon class="cls-7" points="70.38 1202.33 0 1113.46 0 1215.23 70.38 1202.33"/><polygon class="cls-8" points="76.76 960.64 70.39 1202.33 0 1113.46 0 1047.48 76.76 960.64"/><polygon class="cls-21" points="76.76 960.64 70.38 1202.33 99.06 1224 227.67 1224 76.76 960.64"/><polygon class="cls-22" points="104.41 829.87 0.02 756.29 76.76 960.64 104.41 829.87"/><polygon class="cls-23" points="0 756.29 76.76 960.64 0 950.42 0 756.29"/><polygon class="cls-14" points="138.27 429.26 0 552.62 0 756.29 138.27 429.26"/><polygon class="cls-24" points="0 302.96 76.74 339.33 0 147.46 0 302.96"/><polygon class="cls-25" points="0 422.96 0 302.96 76.74 339.33 0 422.96"/><polygon class="cls-26" points="0 552.62 0 460.46 138.27 429.26 0 552.62"/><polygon class="cls-27" points="736.11 171.96 484.06 296.9 792 357.91 792 263.76 736.11 171.96"/><polygon class="cls-28" points="471.09 76.37 484.06 296.9 736.11 171.96 471.09 76.37"/><polygon class="cls-29" points="76.76 960.64 281.65 1078.78 392.21 867.75 76.76 960.64"/><polygon class="cls-25" points="227.67 1224 76.76 960.64 281.65 1078.78 285.59 1224 227.67 1224"/><polygon class="cls-30" points="392.21 867.75 673.02 1122.4 670.31 922.48 392.21 867.75"/><polygon class="cls-31" points="554.91 1179.17 392.21 867.75 673.02 1122.4 554.91 1179.17"/><polygon class="cls-32" points="456.49 608.7 262.36 733.56 392.21 867.75 456.49 608.7"/><polygon class="cls-4" points="138.29 429.26 456.49 608.7 262.36 733.56 138.29 429.26"/><polygon class="cls-33" points="392.21 867.75 628.31 841.53 670.31 922.48 392.21 867.75"/><polygon class="cls-19" points="456.49 608.7 628.31 841.53 392.21 867.75 456.49 608.7"/><polygon class="cls-28" points="456.49 608.7 570.17 564.79 484.06 296.9 456.49 608.7"/><polygon class="cls-6" points="262.22 103.42 484.06 296.9 471.09 76.37 262.22 103.42"/><polygon class="cls-20" points="534.28 0 471.09 76.37 346.75 0 534.28 0"/><polygon class="cls-33" points="230.75 297 456.49 608.79 484.06 297 230.75 297"/><polygon class="cls-22" points="138.29 429.26 230.77 296.9 456.49 608.7 138.29 429.26"/><polygon class="cls-34" points="622.19 0 736.11 171.96 471.09 76.37 534.28 0 622.19 0"/><polygon class="cls-15" points="230.75 296.9 262.22 103.42 65.26 0 0 0 0 45.27 230.75 296.9"/><polygon class="cls-35" points="262.22 103.42 276.28 0 65.26 0 262.22 103.42"/><polygon class="cls-19" points="281.65 1078.78 285.59 1224 411.07 1224 281.65 1078.78"/><polygon class="cls-1" points="138.29 429.26 76.76 339.33 230.77 296.9 138.29 429.26"/><polygon class="cls-6" points="0 422.96 76.75 339.33 138.28 429.26 0 460.46 0 422.96"/><polygon class="cls-22" points="346.75 0 471.09 76.37 262.22 103.42 276.28 0 346.75 0"/><polygon class="cls-36" points="730.73 482.36 709.73 676.85 792 733.56 792 662.44 730.73 482.36"/><polygon class="cls-12" points="570.17 564.79 709.73 676.85 730.73 482.36 570.17 564.79"/><polygon class="cls-13" points="792 662.44 730.73 482.36 792 403.93 792 662.44"/><polygon class="cls-37" points="570.17 564.79 730.73 482.36 484.06 296.9 570.17 564.79"/></g><g class="cls-39"><polygon class="cls-1" points="262.36 490.44 138.29 794.74 0.02 467.71 262.36 490.44"/><polygon class="cls-2" points="104.41 394.13 262.36 490.44 0.02 467.71 104.41 394.13"/><polygon class="cls-3" points="0 1076.54 76.75 884.67 230.75 927.1 0 1178.73 0 1076.54"/><polygon class="cls-2" points="792 1089.5 736.11 1052.05 622.19 1224 792 1224 792 1089.5"/><polygon class="cls-4" points="230.75 927 484.06 927 262.22 1120.49 230.75 927"/><polygon class="cls-5" points="792 960.24 736.11 1052.05 792 1089.5 792 960.24"/><polygon class="cls-6" points="730.73 741.64 484.06 927.1 792 866.09 792 820.07 730.73 741.64"/><polygon class="cls-7" points="456.49 615.3 709.73 547.15 570.17 659.21 456.49 615.3"/><polygon class="cls-8" points="792 402.14 627.77 382.36 709.73 547.15 792 490.44 792 402.14"/><polygon class="cls-9" points="456.49 615.3 628.31 382.47 709.73 547.15 456.49 615.3"/><polygon class="cls-10" points="104.41 394.13 392.21 356.25 262.36 490.44 104.41 394.13"/><polygon class="cls-4" points="76.76 263.36 392.21 356.25 104.41 394.13 76.76 263.36"/><polygon class="cls-11" points="792 0 785.33 0 673.02 101.6 792 97.33 792 0"/><polygon class="cls-12" points="792 356.75 670.31 301.52 792 273.62 792 356.75"/><polygon class="cls-7" points="792 141.42 670.31 301.52 792 273.62 792 141.42"/><polygon class="cls-6" points="673.02 101.6 670.31 301.52 792 141.42 792 97.33 673.02 101.6"/><polygon class="cls-13" points="792 402.14 628.31 382.47 670.31 301.52 792 356.75 792 402.14"/><polygon class="cls-14" points="281.65 145.22 554.91 44.83 392.21 356.25 281.65 145.22"/><polygon class="cls-15" points="674.43 0 554.91 44.83 673.02 101.6 785.33 0 674.43 0"/><polygon class="cls-16" points="674.43 0 574.75 0 554.91 44.83 674.43 0"/><polygon class="cls-17" points="460.58 0 554.91 44.83 574.75 0 460.58 0"/><polygon class="cls-18" points="281.65 145.22 411.07 0 460.58 0 554.91 44.83 281.65 145.22"/><polygon class="cls-19" points="0 176.52 76.76 263.36 0 273.58 0 176.52"/><polygon class="cls-13" points="59.38 0 70.38 21.68 99.06 0 59.38 0"/><polygon class="cls-20" points="70.38 21.68 0 8.77 0 0 59.38 0 70.38 21.68"/><polygon class="cls-7" points="70.38 21.68 0 110.54 0 8.77 70.38 21.68"/><polygon class="cls-8" points="76.76 263.36 70.39 21.68 0 110.54 0 176.52 76.76 263.36"/><polygon class="cls-21" points="76.76 263.36 70.38 21.68 99.06 0 227.67 0 76.76 263.36"/><polygon class="cls-22" points="104.41 394.13 0.02 467.71 76.76 263.36 104.41 394.13"/><polygon class="cls-23" points="0 467.71 76.76 263.36 0 273.58 0 467.71"/><polygon class="cls-14" points="138.27 794.74 0 671.38 0 467.71 138.27 794.74"/><polygon class="cls-24" points="0 921.03 76.74 884.67 0 1076.54 0 921.03"/><polygon class="cls-25" points="0 801.04 0 921.03 76.74 884.67 0 801.04"/><polygon class="cls-26" points="0 671.38 0 763.54 138.27 794.74 0 671.38"/><polygon class="cls-27" points="736.11 1052.05 484.06 927.1 792 866.09 792 960.24 736.11 1052.05"/><polygon class="cls-28" points="471.09 1147.63 484.06 927.1 736.11 1052.05 471.09 1147.63"/><polygon class="cls-29" points="76.76 263.36 281.65 145.22 392.21 356.25 76.76 263.36"/><polygon class="cls-25" points="227.67 0 76.76 263.36 281.65 145.22 285.59 0 227.67 0"/><polygon class="cls-30" points="392.21 356.25 673.02 101.6 670.31 301.52 392.21 356.25"/><polygon class="cls-31" points="554.91 44.83 392.21 356.25 673.02 101.6 554.91 44.83"/><polygon class="cls-32" points="456.49 615.3 262.36 490.44 392.21 356.25 456.49 615.3"/><polygon class="cls-4" points="138.29 794.74 456.49 615.3 262.36 490.44 138.29 794.74"/><polygon class="cls-33" points="392.21 356.25 628.31 382.47 670.31 301.52 392.21 356.25"/><polygon class="cls-19" points="456.49 615.3 628.31 382.47 392.21 356.25 456.49 615.3"/><polygon class="cls-28" points="456.49 615.3 570.17 659.21 484.06 927.1 456.49 615.3"/><polygon class="cls-6" points="262.22 1120.59 484.06 927.1 471.09 1147.63 262.22 1120.59"/><polygon class="cls-20" points="534.28 1224 471.09 1147.63 346.75 1224 534.28 1224"/><polygon class="cls-33" points="230.75 927 456.49 615.21 484.06 927 230.75 927"/><polygon class="cls-22" points="138.29 794.74 230.77 927.1 456.49 615.3 138.29 794.74"/><polygon class="cls-34" points="622.19 1224 736.11 1052.05 471.09 1147.63 534.28 1224 622.19 1224"/><polygon class="cls-15" points="230.75 927.1 262.22 1120.59 65.26 1224 0 1224 0 1178.73 230.75 927.1"/><polygon class="cls-35" points="262.22 1120.59 276.28 1224 65.26 1224 262.22 1120.59"/><polygon class="cls-19" points="281.65 145.22 285.59 0 411.07 0 281.65 145.22"/><polygon class="cls-1" points="138.29 794.74 76.76 884.67 230.77 927.1 138.29 794.74"/><polygon class="cls-6" points="0 801.04 76.75 884.67 138.28 794.74 0 763.54 0 801.04"/><polygon class="cls-22" points="346.75 1224 471.09 1147.63 262.22 1120.59 276.28 1224 346.75 1224"/><polygon class="cls-36" points="730.73 741.64 709.73 547.15 792 490.44 792 561.56 730.73 741.64"/><polygon class="cls-12" points="570.17 659.21 709.73 547.15 730.73 741.64 570.17 659.21"/><polygon class="cls-13" points="792 561.56 730.73 741.64 792 820.07 792 561.56"/><polygon class="cls-37" points="570.17 659.21 730.73 741.64 484.06 927.1 570.17 659.21"/></g><g class="cls-40"><polygon class="cls-1" points="335.67 427.5 176.94 816.83 0.02 398.4 335.67 427.5"/><polygon class="cls-2" points="133.58 304.27 335.67 427.5 0.02 398.4 133.58 304.27"/><polygon class="cls-3" points="0 1177.37 98.2 931.89 295.23 986.17 77.14 1224 0 1224 0 1177.37"/><polygon class="cls-4" points="295.23 986 619.33 986 346.75 1224 333.92 1224 295.23 986"/><polygon class="cls-6" points="792 856.22 619.11 986.17 792 951.91 792 856.22"/><polygon class="cls-7" points="584.05 587.24 792.11 531.25 791.98 593.25 729.5 643.42 584.05 587.24"/><polygon class="cls-9" points="584.05 587.24 791.98 305.49 792.11 531.25 584.05 587.24"/><polygon class="cls-10" points="133.58 304.27 501.81 255.81 335.67 427.5 133.58 304.27"/><polygon class="cls-4" points="98.22 136.96 501.81 255.81 133.58 304.27 98.22 136.96"/><polygon class="cls-14" points="367.8 0 635.45 0 501.81 255.81 367.8 0"/><polygon class="cls-19" points="0 25.84 98.22 136.96 0 150.03 0 25.84"/><polygon class="cls-8" points="98.22 136.96 94.6 0.02 0 0 0 25.84 98.22 136.96"/><polygon class="cls-21" points="98.22 136.96 94.6 0.02 176.69 0 98.22 136.96"/><polygon class="cls-22" points="133.58 304.27 0.02 398.4 98.22 136.96 133.58 304.27"/><polygon class="cls-23" points="0 398.4 98.22 136.96 0 150.03 0 398.4"/><polygon class="cls-14" points="176.91 816.83 0 659 0 398.4 176.91 816.83"/><polygon class="cls-24" points="0 978.42 98.19 931.89 0 1177.37 0 978.42"/><polygon class="cls-25" points="0 824.88 0 978.42 98.19 931.89 0 824.88"/><polygon class="cls-26" points="0 659 0 776.91 176.91 816.83 0 659"/><polygon class="cls-27" points="792 1071.77 619.09 986.17 792 951.91 792 1071.77"/><polygon class="cls-28" points="605.34 1224 619.33 986.17 792 1071.77 792 1200.34 726.74 1224 605.34 1224"/><polygon class="cls-29" points="98.22 136.96 335.75 0 367.8 0 501.81 255.81 98.22 136.96"/><polygon class="cls-25" points="176.69 0 98.22 136.96 335.75 0 176.69 0"/><polygon class="cls-30" points="501.81 255.81 785.33 0 792 0 792 198.7 501.81 255.81"/><polygon class="cls-31" points="635.45 0 501.81 255.81 785.33 0 635.45 0"/><polygon class="cls-32" points="584.05 587.24 335.67 427.5 501.81 255.81 584.05 587.24"/><polygon class="cls-4" points="176.94 816.83 584.05 587.24 335.67 427.5 176.94 816.83"/><polygon class="cls-33" points="501.83 255.81 792 288.03 792 198.7 501.83 255.81"/><polygon class="cls-19" points="584.05 587.24 792 305.46 791.98 288.03 501.81 255.81 584.05 587.24"/><polygon class="cls-28" points="584.05 587.24 729.5 643.42 619.33 986.17 584.05 587.24"/><polygon class="cls-6" points="346.75 1224 619.33 986.17 605.34 1224 346.75 1224"/><polygon class="cls-33" points="295.23 986 584.05 587.07 619.33 986 295.23 986"/><polygon class="cls-22" points="176.94 816.83 295.25 986.17 584.05 587.24 176.94 816.83"/><polygon class="cls-34" points="792 1224 792 1200.34 726.74 1224 792 1224"/><polygon class="cls-15" points="295.24 986.17 333.92 1224 77.14 1224 295.24 986.17"/><polygon class="cls-1" points="176.94 816.83 98.22 931.89 295.25 986.17 176.94 816.83"/><polygon class="cls-6" points="0 824.88 98.2 931.89 176.92 816.83 0 776.91 0 824.88"/><polygon class="cls-12" points="729.5 643.42 791.98 593.25 792 675.51 729.5 643.42"/><polygon class="cls-37" points="729.5 643.42 792 675.51 792 856.22 619.33 986.17 729.5 643.42"/><g class="cls-38"><polygon class="cls-1" points="677.65 738.55 791.98 458.12 792 748.46 677.65 738.55"/><polygon class="cls-2" points="792 808.26 677.67 738.55 792 748.46 792 808.26"/><polygon class="cls-3" points="792 200.24 717.85 179.87 792.11 98.86 792 200.24"/><polygon class="cls-2" points="41.65 0 71.5 20.01 84.76 0 41.65 0"/><polygon class="cls-4" points="718.09 180 393.99 180 600.22 0 688.81 0 718.09 180"/><polygon class="cls-5" points="0 137.47 71.5 20.01 41.65 0 0 0 0 137.47"/><polygon class="cls-6" points="78.39 417.15 393.99 179.87 0 257.92 0 316.81 78.39 417.15"/><polygon class="cls-7" points="429.27 578.8 105.27 666 283.82 522.62 429.27 578.8"/><polygon class="cls-8" points="0 851.52 210.13 876.84 105.27 666 0 738.55 0 851.52"/><polygon class="cls-9" points="429.27 578.8 209.43 876.69 105.27 666 429.27 578.8"/><polygon class="cls-10" points="792.11 873.31 511.51 910.24 677.65 738.55 792 808.26 792.11 873.31"/><polygon class="cls-4" points="792 992.83 511.51 910.24 792.11 873.31 792 992.83"/><polygon class="cls-12" points="0 909.6 155.69 980.26 0 1015.96 0 909.6"/><polygon class="cls-7" points="0 1185.1 155.69 980.26 0 1015.96 0 1185.1"/><polygon class="cls-6" points="152.39 1224 155.69 980.26 0 1185.1 0 1224 152.39 1224"/><polygon class="cls-13" points="0 851.52 209.43 876.69 155.69 980.26 0 909.6 0 851.52"/><polygon class="cls-14" points="652.96 1180.24 533.84 1224 346.75 1224 511.51 910.24 652.96 1180.24"/><polygon class="cls-18" points="652.96 1180.21 613.94 1224 534.28 1224 652.96 1180.21"/><polygon class="cls-27" points="71.5 20.01 393.99 179.87 0 257.92 0 137.47 71.5 20.01"/><polygon class="cls-28" points="404.57 0 393.99 179.87 71.5 20.01 126.97 0 404.57 0"/><polygon class="cls-29" points="792 992.83 792 1100.04 652.96 1180.24 511.51 910.24 792 992.83"/><polygon class="cls-25" points="792 1224 792 1100.04 652.96 1180.2 651.77 1224 792 1224"/><polygon class="cls-30" points="511.51 910.24 165.52 1224 152.39 1224 155.69 980.26 511.51 910.24"/><polygon class="cls-31" points="346.75 1224 511.51 910.24 165.52 1224 346.75 1224"/><polygon class="cls-32" points="429.27 578.8 677.65 738.55 511.51 910.24 429.27 578.8"/><polygon class="cls-4" points="792.11 374.18 429.27 578.8 677.65 738.55 791.98 467.71 792.11 374.18"/><polygon class="cls-33" points="511.51 910.24 209.43 876.69 155.69 980.26 511.51 910.24"/><polygon class="cls-19" points="429.27 578.8 209.43 876.69 511.51 910.24 429.27 578.8"/><polygon class="cls-28" points="429.27 578.8 283.82 522.62 393.99 179.87 429.27 578.8"/><polygon class="cls-6" points="600.22 0 393.99 179.87 404.57 0 600.22 0"/><polygon class="cls-33" points="718.09 180 429.27 578.93 393.99 180 718.09 180"/><polygon class="cls-22" points="791.98 285.67 718.07 179.87 429.27 578.8 792 374.25 791.98 285.67"/><polygon class="cls-34" points="84.76 0 71.5 20.01 126.74 0.08 84.76 0"/><polygon class="cls-15" points="717.92 179.87 688.75 0.13 792 0 792.11 98.86 717.92 179.87"/><polygon class="cls-19" points="652.96 1180.19 651.77 1224 613.94 1224 652.96 1180.19"/><polygon class="cls-1" points="791.98 285.67 792 200.24 718.07 179.87 791.98 285.67"/><polygon class="cls-36" points="78.39 417.15 105.27 666 0 738.55 0 647.56 78.39 417.15"/><polygon class="cls-12" points="283.82 522.62 105.27 666 78.39 417.15 283.82 522.62"/><polygon class="cls-13" points="0 647.56 78.39 417.15 0 316.81 0 647.56"/><polygon class="cls-37" points="283.82 522.62 78.39 417.15 393.99 179.87 283.82 522.62"/></g><g class="cls-39"><polygon class="cls-1" points="676.67 478.5 791 758.92 791 468.59 676.67 478.5"/><polygon class="cls-2" points="792 357.91 677.65 427.5 792 417.59 792 357.91"/><polygon class="cls-3" points="792 965.75 717.85 986.17 792.11 1067.12 792 965.75"/><polygon class="cls-2" points="0 1193.96 71.5 1146.02 123.17 1224 0 1224 0 1193.96"/><polygon class="cls-41" points="718.09 986 393.99 986 677.82 1233.56 718.09 986"/><polygon class="cls-5" points="0 1028.57 71.5 1146.04 0 1193.96 0 1028.57"/><polygon class="cls-6" points="78.39 748.89 393.99 986.17 0 908.12 0 849.24 78.39 748.89"/><polygon class="cls-7" points="429.27 587.24 105.27 500.05 283.82 643.42 429.27 587.24"/><polygon class="cls-8" points="0 314.52 210.13 289.2 105.27 500.05 0 427.5 0 314.52"/><polygon class="cls-9" points="429.27 587.24 209.43 289.35 105.27 500.05 429.27 587.24"/><polygon class="cls-10" points="791.98 292.72 511.51 255.81 677.65 427.5 792 357.77 791.98 292.72"/><polygon class="cls-4" points="792.11 173.18 511.51 255.81 791.98 292.72 792.11 173.18"/><polygon class="cls-12" points="0 256.44 155.69 185.78 0 150.09 0 256.44"/><polygon class="cls-7" points="0 0 14.48 0 155.69 185.78 0 150.09 0 0"/><polygon class="cls-6" points="153.17 0 155.69 185.78 14.48 0 153.17 0"/><polygon class="cls-13" points="0 314.52 209.43 289.35 155.69 185.78 0 256.44 0 314.52"/><polygon class="cls-14" points="645.53 0 377.87 0 511.51 255.81 645.53 0"/><polygon class="cls-27" points="71.5 1146.04 393.99 986.17 0 908.12 0 1028.57 71.5 1146.04"/><polygon class="cls-28" points="411.07 1224 393.99 986.17 71.5 1146.04 285.59 1224 411.07 1224"/><polygon class="cls-29" points="792 173.18 792 66.04 677.51 0 645.53 0 511.42 255.81 792 173.18"/><polygon class="cls-25" points="792 0 792.11 66.04 677.82 0.14 792 0"/><polygon class="cls-30" points="511.51 255.81 229.43 0 153.17 0 155.69 185.78 511.51 255.81"/><polygon class="cls-31" points="377.87 0 511.51 255.81 229.43 0 377.87 0"/><polygon class="cls-32" points="429.27 587.24 677.65 427.5 511.51 255.81 429.27 587.24"/><polygon class="cls-4" points="791.98 791.79 429.27 587.24 677.65 427.5 792 707.96 791.98 791.79"/><polygon class="cls-33" points="511.51 255.81 209.43 289.35 155.69 185.78 511.51 255.81"/><polygon class="cls-19" points="429.27 587.24 209.43 289.35 511.51 255.81 429.27 587.24"/><polygon class="cls-28" points="429.27 587.24 283.82 643.42 393.99 986.17 429.27 587.24"/><polygon class="cls-6" points="676.63 1224 393.99 986.17 407.98 1224 676.63 1224"/><polygon class="cls-33" points="718.09 986 429.27 587.07 393.99 986 718.09 986"/><polygon class="cls-22" points="792.11 880.19 718.07 986.17 429.27 587.24 791.98 791.79 792.11 880.19"/><polygon class="cls-34" points="123.17 1224 71.5 1146.02 285.59 1224 123.17 1224"/><polygon class="cls-15" points="717.92 986.17 679.32 1224 792 1224 792.11 1067.12 717.92 986.17"/><polygon class="cls-1" points="792.11 880.19 792 965.75 718.07 986.17 792.11 880.19"/><polygon class="cls-36" points="78.39 748.89 105.27 500.05 0 427.5 0 518.49 78.39 748.89"/><polygon class="cls-12" points="283.82 643.42 105.27 500.05 78.39 748.89 283.82 643.42"/><polygon class="cls-13" points="0 518.49 78.39 748.89 0 849.24 0 518.49"/><polygon class="cls-37" points="283.82 643.42 78.39 748.89 393.99 986.17 283.82 643.42"/></g></g></svg>