<?xml version="1.0" encoding="utf-8"?>
<!-- Generator: Adobe Illustrator 19.2.1, SVG Export Plug-In . SVG Version: 6.00 Build 0)  -->
<svg version="1.1" id="Layer_1" xmlns="http://www.w3.org/2000/svg" xmlns:xlink="http://www.w3.org/1999/xlink" x="0px" y="0px"
	 viewBox="0 0 792.1 1224" style="enable-background:new 0 0 792.1 1224;" xml:space="preserve">
<style type="text/css">
	.st0{fill:#F5E95B;}
	.st1{fill:#95D600;}
	.st2{fill:#00A8E1;}
	.st3{fill:#873299;}
	.st4{fill:#783CBD;}
	.st5{fill:#00A7CE;}
	.st6{fill:#A35EB5;}
	.st7{fill:#FEDD3D;}
	.st8{fill:#F42534;}
	.st9{fill:#F7323F;}
	.st10{fill:#B31AAB;}
	.st11{fill:#F286CE;}
	.st12{fill:#72D54A;}
	.st13{fill:#82BC00;}
	.st14{fill:#3FAE2A;}
	.st15{fill:#EEDC00;}
	.st16{fill:#D12A2F;}
	.st17{fill:#8C189B;}
	.st18{fill:#00B3E3;}
	.st19{fill:#EB0029;}
	.st20{fill:#62269E;}
	.st21{fill:#E70095;}
	.st22{fill:#00CDBD;}
	.st23{fill:#EB5DBE;}
	.st24{fill:#D70036;}
	.st25{fill:#FF637D;}
	.st26{fill:#6CC04A;}
	.st27{fill:#FFE01E;}
	.st28{fill:#EEE938;}
	.st29{fill:#00BFD6;}
	.st30{fill:#CB2B99;}
	.st31{fill:#799900;}
	.st32{fill:#FD5373;}
	.st33{fill:#63D0DF;}
	.st34{fill:#8547AD;}
	.st35{fill:#E13EAF;}
	.st36{fill:#FB3449;}
	.st37{opacity:0.5;}
	.st38{opacity:0.1;}
	.st39{opacity:0.3;}
	.st40{fill:#F9ED32;}
</style>
<title>35-years-background-vector</title>
<polygon class="st0" points="529.6,490.4 653.7,794.7 792,467.7 "/>
<polygon class="st1" points="687.6,394.1 529.6,490.4 792,467.7 "/>
<polygon class="st2" points="792,1076.5 715.2,884.7 561.2,927.1 792,1178.7 "/>
<polygon class="st1" points="0,1089.5 55.9,1052.1 169.8,1224 0,1224 "/>
<polygon class="st3" points="561.2,927 307.9,927 529.8,1120.5 "/>
<polygon class="st4" points="0,960.2 55.9,1052.1 0,1089.5 "/>
<polygon class="st5" points="61.3,741.6 307.9,927.1 0,866.1 0,820.1 "/>
<polygon class="st6" points="335.5,615.3 82.3,547.2 221.8,659.2 "/>
<polygon class="st7" points="0,402.1 164.2,382.4 82.3,547.2 0,490.4 "/>
<polygon class="st8" points="335.5,615.3 163.7,382.5 82.3,547.2 "/>
<polygon class="st9" points="687.6,394.1 399.8,356.2 529.6,490.4 "/>
<polygon class="st3" points="715.2,263.4 399.8,356.2 687.6,394.1 "/>
<polygon class="st10" points="0,0 6.7,0 119,101.6 0,97.3 "/>
<polygon class="st11" points="0,356.8 121.7,301.5 0,273.6 "/>
<polygon class="st6" points="0,141.4 121.7,301.5 0,273.6 "/>
<polygon class="st5" points="119,101.6 121.7,301.5 0,141.4 0,97.3 "/>
<polygon class="st12" points="0,402.1 163.7,382.5 121.7,301.5 0,356.8 "/>
<polygon class="st13" points="510.4,145.2 237.1,44.8 399.8,356.2 "/>
<polygon class="st14" points="117.6,0 237.1,44.8 119,101.6 6.7,0 "/>
<polygon class="st15" points="117.6,0 217.2,0 237.1,44.8 "/>
<polygon class="st16" points="331.4,0 237.1,44.8 217.2,0 "/>
<polygon class="st17" points="510.4,145.2 380.9,0 331.4,0 237.1,44.8 "/>
<polygon class="st18" points="792,176.5 715.2,263.4 792,273.6 "/>
<polygon class="st12" points="732.6,0 721.6,21.7 692.9,0 "/>
<polygon class="st19" points="721.6,21.7 792,8.8 792,0 732.6,0 "/>
<polygon class="st6" points="721.6,21.7 792,110.5 792,8.8 "/>
<polygon class="st7" points="715.2,263.4 721.6,21.7 792,110.5 792,176.5 "/>
<polygon class="st20" points="715.2,263.4 721.6,21.7 692.9,0 564.3,0 "/>
<polygon class="st21" points="687.6,394.1 792,467.7 715.2,263.4 "/>
<polygon class="st22" points="792,467.7 715.2,263.4 792,273.6 "/>
<polygon class="st13" points="653.7,794.7 792,671.4 792,467.7 "/>
<polygon class="st23" points="792,921 715.3,884.7 792,1076.5 "/>
<polygon class="st24" points="792,801 792,921 715.3,884.7 "/>
<polygon class="st25" points="792,671.4 792,763.5 653.7,794.7 "/>
<polygon class="st26" points="55.9,1052.1 307.9,927.1 0,866.1 0,960.2 "/>
<polygon class="st27" points="320.9,1147.6 307.9,927.1 55.9,1052.1 "/>
<polygon class="st28" points="715.2,263.4 510.4,145.2 399.8,356.2 "/>
<polygon class="st24" points="564.3,0 715.2,263.4 510.4,145.2 506.4,0 "/>
<polygon class="st29" points="399.8,356.2 119,101.6 121.7,301.5 "/>
<polygon class="st30" points="237.1,44.8 399.8,356.2 119,101.6 "/>
<polygon class="st31" points="335.5,615.3 529.6,490.4 399.8,356.2 "/>
<polygon class="st3" points="653.7,794.7 335.5,615.3 529.6,490.4 "/>
<polygon class="st32" points="399.8,356.2 163.7,382.5 121.7,301.5 "/>
<polygon class="st18" points="335.5,615.3 163.7,382.5 399.8,356.2 "/>
<polygon class="st27" points="335.5,615.3 221.8,659.2 307.9,927.1 "/>
<polygon class="st5" points="529.8,1120.6 307.9,927.1 320.9,1147.6 "/>
<polygon class="st19" points="257.7,1224 320.9,1147.6 445.2,1224 "/>
<polygon class="st32" points="561.2,927 335.5,615.2 307.9,927 "/>
<polygon class="st21" points="653.7,794.7 561.2,927.1 335.5,615.3 "/>
<polygon class="st33" points="169.8,1224 55.9,1052.1 320.9,1147.6 257.7,1224 "/>
<polygon class="st14" points="561.2,927.1 529.8,1120.6 726.7,1224 792,1224 792,1178.7 "/>
<polygon class="st34" points="529.8,1120.6 515.7,1224 726.7,1224 "/>
<polygon class="st18" points="510.4,145.2 506.4,0 380.9,0 "/>
<polygon class="st0" points="653.7,794.7 715.2,884.7 561.2,927.1 "/>
<polygon class="st5" points="792,801 715.2,884.7 653.7,794.7 792,763.5 "/>
<polygon class="st21" points="445.2,1224 320.9,1147.6 529.8,1120.6 515.7,1224 "/>
<polygon class="st35" points="61.3,741.6 82.3,547.2 0,490.4 0,561.6 "/>
<polygon class="st11" points="221.8,659.2 82.3,547.2 61.3,741.6 "/>
<polygon class="st12" points="0,561.6 61.3,741.6 0,820.1 "/>
<polygon class="st36" points="221.8,659.2 61.3,741.6 307.9,927.1 "/>
<g class="st37">
	<polygon class="st0" points="262.4,733.6 138.3,429.3 0,756.3 	"/>
	<polygon class="st1" points="104.4,829.9 262.4,733.6 0,756.3 	"/>
	<polygon class="st2" points="0,147.5 76.8,339.3 230.8,296.9 0,45.3 	"/>
	<polygon class="st1" points="792,134.5 736.1,172 622.2,0 792,0 	"/>
	<polygon class="st3" points="230.8,297 484.1,297 262.2,103.5 	"/>
	<polygon class="st4" points="792,263.8 736.1,172 792,134.5 	"/>
	<polygon class="st5" points="730.7,482.4 484.1,296.9 792,357.9 792,403.9 	"/>
	<polygon class="st6" points="456.5,608.7 709.7,676.8 570.2,564.8 	"/>
	<polygon class="st7" points="792,821.9 627.8,841.6 709.7,676.8 792,733.6 	"/>
	<polygon class="st8" points="456.5,608.7 628.3,841.5 709.7,676.8 	"/>
	<polygon class="st9" points="104.4,829.9 392.2,867.8 262.4,733.6 	"/>
	<polygon class="st3" points="76.8,960.6 392.2,867.8 104.4,829.9 	"/>
	<polygon class="st10" points="792,1224 785.3,1224 673,1122.4 792,1126.7 	"/>
	<polygon class="st11" points="792,867.2 670.3,922.5 792,950.4 	"/>
	<polygon class="st6" points="792,1082.6 670.3,922.5 792,950.4 	"/>
	<polygon class="st5" points="673,1122.4 670.3,922.5 792,1082.6 792,1126.7 	"/>
	<polygon class="st12" points="792,821.9 628.3,841.5 670.3,922.5 792,867.2 	"/>
	<polygon class="st13" points="281.6,1078.8 554.9,1179.2 392.2,867.8 	"/>
	<polygon class="st14" points="674.4,1224 554.9,1179.2 673,1122.4 785.3,1224 	"/>
	<polygon class="st15" points="674.4,1224 574.8,1224 554.9,1179.2 	"/>
	<polygon class="st16" points="460.6,1224 554.9,1179.2 574.8,1224 	"/>
	<polygon class="st17" points="281.6,1078.8 411.1,1224 460.6,1224 554.9,1179.2 	"/>
	<polygon class="st18" points="0,1047.5 76.8,960.6 0,950.4 	"/>
	<polygon class="st12" points="59.4,1224 70.4,1202.3 99.1,1224 	"/>
	<polygon class="st19" points="70.4,1202.3 0,1215.2 0,1224 59.4,1224 	"/>
	<polygon class="st6" points="70.4,1202.3 0,1113.5 0,1215.2 	"/>
	<polygon class="st7" points="76.8,960.6 70.4,1202.3 0,1113.5 0,1047.5 	"/>
	<polygon class="st20" points="76.8,960.6 70.4,1202.3 99.1,1224 227.7,1224 	"/>
	<polygon class="st21" points="104.4,829.9 0,756.3 76.8,960.6 	"/>
	<polygon class="st22" points="0,756.3 76.8,960.6 0,950.4 	"/>
	<polygon class="st13" points="138.3,429.3 0,552.6 0,756.3 	"/>
	<polygon class="st23" points="0,303 76.7,339.3 0,147.5 	"/>
	<polygon class="st24" points="0,423 0,303 76.7,339.3 	"/>
	<polygon class="st25" points="0,552.6 0,460.5 138.3,429.3 	"/>
	<polygon class="st26" points="736.1,172 484.1,296.9 792,357.9 792,263.8 	"/>
	<polygon class="st27" points="471.1,76.4 484.1,296.9 736.1,172 	"/>
	<polygon class="st28" points="76.8,960.6 281.6,1078.8 392.2,867.8 	"/>
	<polygon class="st24" points="227.7,1224 76.8,960.6 281.6,1078.8 285.6,1224 	"/>
	<polygon class="st29" points="392.2,867.8 673,1122.4 670.3,922.5 	"/>
	<polygon class="st30" points="554.9,1179.2 392.2,867.8 673,1122.4 	"/>
	<polygon class="st31" points="456.5,608.7 262.4,733.6 392.2,867.8 	"/>
	<polygon class="st3" points="138.3,429.3 456.5,608.7 262.4,733.6 	"/>
	<polygon class="st32" points="392.2,867.8 628.3,841.5 670.3,922.5 	"/>
	<polygon class="st18" points="456.5,608.7 628.3,841.5 392.2,867.8 	"/>
	<polygon class="st27" points="456.5,608.7 570.2,564.8 484.1,296.9 	"/>
	<polygon class="st5" points="262.2,103.4 484.1,296.9 471.1,76.4 	"/>
	<polygon class="st19" points="534.3,0 471.1,76.4 346.8,0 	"/>
	<polygon class="st32" points="230.8,297 456.5,608.8 484.1,297 	"/>
	<polygon class="st21" points="138.3,429.3 230.8,296.9 456.5,608.7 	"/>
	<polygon class="st33" points="622.2,0 736.1,172 471.1,76.4 534.3,0 	"/>
	<polygon class="st14" points="230.8,296.9 262.2,103.4 65.3,0 0,0 0,45.3 	"/>
	<polygon class="st34" points="262.2,103.4 276.3,0 65.3,0 	"/>
	<polygon class="st18" points="281.6,1078.8 285.6,1224 411.1,1224 	"/>
	<polygon class="st0" points="138.3,429.3 76.8,339.3 230.8,296.9 	"/>
	<polygon class="st5" points="0,423 76.8,339.3 138.3,429.3 0,460.5 	"/>
	<polygon class="st21" points="346.8,0 471.1,76.4 262.2,103.4 276.3,0 	"/>
	<polygon class="st35" points="730.7,482.4 709.7,676.8 792,733.6 792,662.4 	"/>
	<polygon class="st11" points="570.2,564.8 709.7,676.8 730.7,482.4 	"/>
	<polygon class="st12" points="792,662.4 730.7,482.4 792,403.9 	"/>
	<polygon class="st36" points="570.2,564.8 730.7,482.4 484.1,296.9 	"/>
</g>
<g class="st38">
	<polygon class="st0" points="262.4,490.4 138.3,794.7 0,467.7 	"/>
	<polygon class="st1" points="104.4,394.1 262.4,490.4 0,467.7 	"/>
	<polygon class="st2" points="0,1076.5 76.8,884.7 230.8,927.1 0,1178.7 	"/>
	<polygon class="st1" points="792,1089.5 736.1,1052.1 622.2,1224 792,1224 	"/>
	<polygon class="st3" points="230.8,927 484.1,927 262.2,1120.5 	"/>
	<polygon class="st4" points="792,960.2 736.1,1052.1 792,1089.5 	"/>
	<polygon class="st5" points="730.7,741.6 484.1,927.1 792,866.1 792,820.1 	"/>
	<polygon class="st6" points="456.5,615.3 709.7,547.2 570.2,659.2 	"/>
	<polygon class="st7" points="792,402.1 627.8,382.4 709.7,547.2 792,490.4 	"/>
	<polygon class="st8" points="456.5,615.3 628.3,382.5 709.7,547.2 	"/>
	<polygon class="st9" points="104.4,394.1 392.2,356.2 262.4,490.4 	"/>
	<polygon class="st3" points="76.8,263.4 392.2,356.2 104.4,394.1 	"/>
	<polygon class="st10" points="792,0 785.3,0 673,101.6 792,97.3 	"/>
	<polygon class="st11" points="792,356.8 670.3,301.5 792,273.6 	"/>
	<polygon class="st6" points="792,141.4 670.3,301.5 792,273.6 	"/>
	<polygon class="st5" points="673,101.6 670.3,301.5 792,141.4 792,97.3 	"/>
	<polygon class="st12" points="792,402.1 628.3,382.5 670.3,301.5 792,356.8 	"/>
	<polygon class="st13" points="281.6,145.2 554.9,44.8 392.2,356.2 	"/>
	<polygon class="st14" points="674.4,0 554.9,44.8 673,101.6 785.3,0 	"/>
	<polygon class="st15" points="674.4,0 574.8,0 554.9,44.8 	"/>
	<polygon class="st16" points="460.6,0 554.9,44.8 574.8,0 	"/>
	<polygon class="st17" points="281.6,145.2 411.1,0 460.6,0 554.9,44.8 	"/>
	<polygon class="st18" points="0,176.5 76.8,263.4 0,273.6 	"/>
	<polygon class="st12" points="59.4,0 70.4,21.7 99.1,0 	"/>
	<polygon class="st19" points="70.4,21.7 0,8.8 0,0 59.4,0 	"/>
	<polygon class="st6" points="70.4,21.7 0,110.5 0,8.8 	"/>
	<polygon class="st7" points="76.8,263.4 70.4,21.7 0,110.5 0,176.5 	"/>
	<polygon class="st20" points="76.8,263.4 70.4,21.7 99.1,0 227.7,0 	"/>
	<polygon class="st21" points="104.4,394.1 0,467.7 76.8,263.4 	"/>
	<polygon class="st22" points="0,467.7 76.8,263.4 0,273.6 	"/>
	<polygon class="st13" points="138.3,794.7 0,671.4 0,467.7 	"/>
	<polygon class="st23" points="0,921 76.7,884.7 0,1076.5 	"/>
	<polygon class="st24" points="0,801 0,921 76.7,884.7 	"/>
	<polygon class="st25" points="0,671.4 0,763.5 138.3,794.7 	"/>
	<polygon class="st26" points="736.1,1052.1 484.1,927.1 792,866.1 792,960.2 	"/>
	<polygon class="st27" points="471.1,1147.6 484.1,927.1 736.1,1052.1 	"/>
	<polygon class="st28" points="76.8,263.4 281.6,145.2 392.2,356.2 	"/>
	<polygon class="st24" points="227.7,0 76.8,263.4 281.6,145.2 285.6,0 	"/>
	<polygon class="st29" points="392.2,356.2 673,101.6 670.3,301.5 	"/>
	<polygon class="st30" points="554.9,44.8 392.2,356.2 673,101.6 	"/>
	<polygon class="st31" points="456.5,615.3 262.4,490.4 392.2,356.2 	"/>
	<polygon class="st3" points="138.3,794.7 456.5,615.3 262.4,490.4 	"/>
	<polygon class="st32" points="392.2,356.2 628.3,382.5 670.3,301.5 	"/>
	<polygon class="st18" points="456.5,615.3 628.3,382.5 392.2,356.2 	"/>
	<polygon class="st27" points="456.5,615.3 570.2,659.2 484.1,927.1 	"/>
	<polygon class="st5" points="262.2,1120.6 484.1,927.1 471.1,1147.6 	"/>
	<polygon class="st19" points="534.3,1224 471.1,1147.6 346.8,1224 	"/>
	<polygon class="st32" points="230.8,927 456.5,615.2 484.1,927 	"/>
	<polygon class="st21" points="138.3,794.7 230.8,927.1 456.5,615.3 	"/>
	<polygon class="st33" points="622.2,1224 736.1,1052.1 471.1,1147.6 534.3,1224 	"/>
	<polygon class="st14" points="230.8,927.1 262.2,1120.6 65.3,1224 0,1224 0,1178.7 	"/>
	<polygon class="st34" points="262.2,1120.6 276.3,1224 65.3,1224 	"/>
	<polygon class="st18" points="281.6,145.2 285.6,0 411.1,0 	"/>
	<polygon class="st0" points="138.3,794.7 76.8,884.7 230.8,927.1 	"/>
	<polygon class="st5" points="0,801 76.8,884.7 138.3,794.7 0,763.5 	"/>
	<polygon class="st21" points="346.8,1224 471.1,1147.6 262.2,1120.6 276.3,1224 	"/>
	<polygon class="st35" points="730.7,741.6 709.7,547.2 792,490.4 792,561.6 	"/>
	<polygon class="st11" points="570.2,659.2 709.7,547.2 730.7,741.6 	"/>
	<polygon class="st12" points="792,561.6 730.7,741.6 792,820.1 	"/>
	<polygon class="st36" points="570.2,659.2 730.7,741.6 484.1,927.1 	"/>
</g>
<g class="st39">
	<polygon class="st0" points="335.7,427.5 176.9,816.8 0,398.4 	"/>
	<polygon class="st1" points="133.6,304.3 335.7,427.5 0,398.4 	"/>
	<polygon class="st2" points="0,1177.4 98.2,931.9 295.2,986.2 77.1,1224 0,1224 	"/>
	<polygon class="st3" points="295.2,986 619.3,986 346.8,1224 333.9,1224 	"/>
	<polygon class="st5" points="792,856.2 619.1,986.2 792,951.9 	"/>
	<polygon class="st6" points="584,587.2 792.1,531.2 792,593.2 729.5,643.4 	"/>
	<polygon class="st8" points="584,587.2 792,305.5 792.1,531.2 	"/>
	<polygon class="st9" points="133.6,304.3 501.8,255.8 335.7,427.5 	"/>
	<polygon class="st3" points="98.2,137 501.8,255.8 133.6,304.3 	"/>
	<polygon class="st13" points="367.8,0 635.5,0 501.8,255.8 	"/>
	<polygon class="st18" points="0,25.8 98.2,137 0,150 	"/>
	<polygon class="st7" points="98.2,137 94.6,0 0,0 0,25.8 	"/>
	<polygon class="st20" points="98.2,137 94.6,0 176.7,0 	"/>
	<polygon class="st21" points="133.6,304.3 0,398.4 98.2,137 	"/>
	<polygon class="st22" points="0,398.4 98.2,137 0,150 	"/>
	<polygon class="st13" points="176.9,816.8 0,659 0,398.4 	"/>
	<polygon class="st23" points="0,978.4 98.2,931.9 0,1177.4 	"/>
	<polygon class="st24" points="0,824.9 0,978.4 98.2,931.9 	"/>
	<polygon class="st25" points="0,659 0,776.9 176.9,816.8 	"/>
	<polygon class="st26" points="792,1071.8 619.1,986.2 792,951.9 	"/>
	<polygon class="st27" points="605.3,1224 619.3,986.2 792,1071.8 792,1200.3 726.7,1224 	"/>
	<polygon class="st28" points="98.2,137 335.8,0 367.8,0 501.8,255.8 	"/>
	<polygon class="st24" points="176.7,0 98.2,137 335.8,0 	"/>
	<polygon class="st29" points="501.8,255.8 785.3,0 792,0 792,198.7 	"/>
	<polygon class="st30" points="635.5,0 501.8,255.8 785.3,0 	"/>
	<polygon class="st31" points="584,587.2 335.7,427.5 501.8,255.8 	"/>
	<polygon class="st3" points="176.9,816.8 584,587.2 335.7,427.5 	"/>
	<polygon class="st32" points="501.8,255.8 792,288 792,198.7 	"/>
	<polygon class="st18" points="584,587.2 792,305.5 792,288 501.8,255.8 	"/>
	<polygon class="st27" points="584,587.2 729.5,643.4 619.3,986.2 	"/>
	<polygon class="st5" points="346.8,1224 619.3,986.2 605.3,1224 	"/>
	<polygon class="st32" points="295.2,986 584,587.1 619.3,986 	"/>
	<polygon class="st21" points="176.9,816.8 295.2,986.2 584,587.2 	"/>
	<polygon class="st33" points="792,1224 792,1200.3 726.7,1224 	"/>
	<polygon class="st14" points="295.2,986.2 333.9,1224 77.1,1224 	"/>
	<polygon class="st0" points="176.9,816.8 98.2,931.9 295.2,986.2 	"/>
	<polygon class="st5" points="0,824.9 98.2,931.9 176.9,816.8 0,776.9 	"/>
	<polygon class="st11" points="729.5,643.4 792,593.2 792,675.5 	"/>
	<polygon class="st36" points="729.5,643.4 792,675.5 792,856.2 619.3,986.2 	"/>
	<g class="st37">
		<polygon class="st0" points="677.7,738.5 792,458.1 792,748.5 		"/>
		<polygon class="st1" points="792,808.3 677.7,738.5 792,748.5 		"/>
		<polygon class="st2" points="792,200.2 717.8,179.9 792.1,98.9 		"/>
		<polygon class="st1" points="41.7,0 71.5,20 84.8,0 		"/>
		<polygon class="st3" points="718.1,180 394,180 600.2,0 688.8,0 		"/>
		<polygon class="st4" points="0,137.5 71.5,20 41.7,0 0,0 		"/>
		<polygon class="st5" points="78.4,417.1 394,179.9 0,257.9 0,316.8 		"/>
		<polygon class="st6" points="429.3,578.8 105.3,666 283.8,522.6 		"/>
		<polygon class="st7" points="0,851.5 210.1,876.8 105.3,666 0,738.5 		"/>
		<polygon class="st8" points="429.3,578.8 209.4,876.7 105.3,666 		"/>
		<polygon class="st9" points="792.1,873.3 511.5,910.2 677.7,738.5 792,808.3 		"/>
		<polygon class="st3" points="792,992.8 511.5,910.2 792.1,873.3 		"/>
		<polygon class="st11" points="0,909.6 155.7,980.3 0,1016 		"/>
		<polygon class="st6" points="0,1185.1 155.7,980.3 0,1016 		"/>
		<polygon class="st5" points="152.4,1224 155.7,980.3 0,1185.1 0,1224 		"/>
		<polygon class="st12" points="0,851.5 209.4,876.7 155.7,980.3 0,909.6 		"/>
		<polygon class="st13" points="653,1180.2 533.8,1224 346.8,1224 511.5,910.2 		"/>
		<polygon class="st17" points="653,1180.2 613.9,1224 534.3,1224 		"/>
		<polygon class="st26" points="71.5,20 394,179.9 0,257.9 0,137.5 		"/>
		<polygon class="st27" points="404.6,0 394,179.9 71.5,20 127,0 		"/>
		<polygon class="st28" points="792,992.8 792,1100 653,1180.2 511.5,910.2 		"/>
		<polygon class="st24" points="792,1224 792,1100 653,1180.2 651.8,1224 		"/>
		<polygon class="st29" points="511.5,910.2 165.5,1224 152.4,1224 155.7,980.3 		"/>
		<polygon class="st30" points="346.8,1224 511.5,910.2 165.5,1224 		"/>
		<polygon class="st31" points="429.3,578.8 677.7,738.5 511.5,910.2 		"/>
		<polygon class="st3" points="792.1,374.2 429.3,578.8 677.7,738.5 792,458.1 		"/>
		<polygon class="st32" points="511.5,910.2 209.4,876.7 155.7,980.3 		"/>
		<polygon class="st18" points="429.3,578.8 209.4,876.7 511.5,910.2 		"/>
		<polygon class="st27" points="429.3,578.8 283.8,522.6 394,179.9 		"/>
		<polygon class="st5" points="600.2,0 394,179.9 404.6,0 		"/>
		<polygon class="st32" points="718.1,180 429.3,578.9 394,180 		"/>
		<polygon class="st21" points="792,285.7 718.1,179.9 429.3,578.8 792,374.2 		"/>
		<polygon class="st33" points="84.8,0 71.5,20 126.7,0.1 		"/>
		<polygon class="st14" points="717.9,179.9 688.8,0.1 792,0 792.1,98.9 		"/>
		<polygon class="st18" points="653,1180.2 651.8,1224 613.9,1224 		"/>
		<polygon class="st0" points="792,285.7 792,200.2 718.1,179.9 		"/>
		<polygon class="st35" points="78.4,417.1 105.3,666 0,738.5 0,647.6 		"/>
		<polygon class="st11" points="283.8,522.6 105.3,666 78.4,417.1 		"/>
		<polygon class="st12" points="0,647.6 78.4,417.1 0,316.8 		"/>
		<polygon class="st36" points="283.8,522.6 78.4,417.1 394,179.9 		"/>
	</g>
	<g class="st38">
		<polygon class="st0" points="677.7,427.5 792,707.9 792,417.6 		"/>
		<polygon class="st1" points="792,357.9 677.7,427.5 792,417.6 		"/>
		<polygon class="st2" points="792,965.8 717.8,986.2 792.1,1067.1 		"/>
		<polygon class="st1" points="0,1194 71.5,1146 123.2,1224 0,1224 		"/>
		<polygon class="st40" points="718.1,986 394,986 677.8,1233.6 		"/>
		<polygon class="st4" points="0,1028.6 71.5,1146 0,1194 		"/>
		<polygon class="st5" points="78.4,748.9 394,986.2 0,908.1 0,849.2 		"/>
		<polygon class="st6" points="429.3,587.2 105.3,500 283.8,643.4 		"/>
		<polygon class="st7" points="0,314.5 210.1,289.2 105.3,500 0,427.5 		"/>
		<polygon class="st8" points="429.3,587.2 209.4,289.4 105.3,500 		"/>
		<polygon class="st9" points="792,292.7 511.5,255.8 677.7,427.5 792,357.8 		"/>
		<polygon class="st3" points="792.1,173.2 511.5,255.8 792,292.7 		"/>
		<polygon class="st11" points="0,256.4 155.7,185.8 0,150.1 		"/>
		<polygon class="st6" points="0,0 14.5,0 155.7,185.8 0,150.1 		"/>
		<polygon class="st5" points="153.2,0 155.7,185.8 14.5,0 		"/>
		<polygon class="st12" points="0,314.5 209.4,289.4 155.7,185.8 0,256.4 		"/>
		<polygon class="st13" points="645.5,0 377.9,0 511.5,255.8 		"/>
		<polygon class="st26" points="71.5,1146 394,986.2 0,908.1 0,1028.6 		"/>
		<polygon class="st27" points="411.1,1224 394,986.2 71.5,1146 285.6,1224 		"/>
		<polygon class="st28" points="792,173.2 792,66 677.5,0 645.5,0 511.4,255.8 		"/>
		<polygon class="st24" points="792,0 792.1,66 677.8,0.1 		"/>
		<polygon class="st29" points="511.5,255.8 229.4,0 153.2,0 155.7,185.8 		"/>
		<polygon class="st30" points="377.9,0 511.5,255.8 229.4,0 		"/>
		<polygon class="st31" points="429.3,587.2 677.7,427.5 511.5,255.8 		"/>
		<polygon class="st3" points="792,791.8 429.3,587.2 677.7,427.5 792,708 		"/>
		<polygon class="st32" points="511.5,255.8 209.4,289.4 155.7,185.8 		"/>
		<polygon class="st18" points="429.3,587.2 209.4,289.4 511.5,255.8 		"/>
		<polygon class="st27" points="429.3,587.2 283.8,643.4 394,986.2 		"/>
		<polygon class="st5" points="676.6,1224 394,986.2 408,1224 		"/>
		<polygon class="st32" points="718.1,986 429.3,587.1 394,986 		"/>
		<polygon class="st21" points="792.1,880.2 718.1,986.2 429.3,587.2 792,791.8 		"/>
		<polygon class="st33" points="123.2,1224 71.5,1146 285.6,1224 		"/>
		<polygon class="st14" points="717.9,986.2 679.3,1224 792,1224 792.1,1067.1 		"/>
		<polygon class="st0" points="792.1,880.2 792,965.8 718.1,986.2 		"/>
		<polygon class="st35" points="78.4,748.9 105.3,500 0,427.5 0,518.5 		"/>
		<polygon class="st11" points="283.8,643.4 105.3,500 78.4,748.9 		"/>
		<polygon class="st12" points="0,518.5 78.4,748.9 0,849.2 		"/>
		<polygon class="st36" points="283.8,643.4 78.4,748.9 394,986.2 		"/>
	</g>
</g>
</svg>
