<svg id="Layer_1" data-name="Layer 1" xmlns="http://www.w3.org/2000/svg" viewBox="0 0 142.63 184.49"><defs><style>.cls-1{fill:#fff;}</style></defs><title>apple-computer-1987</title><rect class="cls-1" x="23" y="17.75" width="97" height="4.25"/><rect class="cls-1" x="12.17" width="118.25" height="4.93"/><rect class="cls-1" x="835.36" y="484.18" width="140.21" height="4.93" transform="translate(-484.18 987.86) rotate(-90)"/><rect class="cls-1" x="973.06" y="484.18" width="140.21" height="4.93" transform="translate(-346.48 1125.56) rotate(-90)"/><rect class="cls-1" x="85.91" y="126.38" width="32.54" height="4.25"/><rect class="cls-1" x="17.5" y="131.38" width="10.24" height="4.25"/><rect class="cls-1" x="23" y="97.5" width="97" height="4.25"/><rect class="cls-1" x="887.13" y="461.87" width="71" height="4.25" transform="translate(-444.37 982.37) rotate(-90)"/><rect class="cls-1" x="989.62" y="461.87" width="71" height="4.25" transform="translate(-341.87 1084.87) rotate(-90)"/><rect class="cls-1" x="906.87" y="576.19" width="20.85" height="4.25" transform="translate(-564.02 1091.36) rotate(-90)"/><rect class="cls-1" x="1020.88" y="576.19" width="20.85" height="4.25" transform="translate(-450.02 1205.37) rotate(-90)"/><rect class="cls-1" x="46.33" y="39.08" width="4.83" height="12.33"/><rect class="cls-1" x="85.91" y="39.08" width="4.83" height="12.33"/><rect class="cls-1" x="968.39" y="464.92" width="4.83" height="12.33" transform="translate(-403.27 1037.64) rotate(-90)"/><rect class="cls-1" x="69.14" y="39.56" width="4.83" height="29.69"/><rect class="cls-1" x="51.17" y="74.08" width="5.5" height="5.5"/><rect class="cls-1" x="79.54" y="74.08" width="5.5" height="5.5"/><rect class="cls-1" x="56.67" y="79.58" width="22.87" height="5.5"/><rect class="cls-1" x="4.9" y="5.01" width="7.27" height="7.27"/><rect class="cls-1" x="130.43" y="5.01" width="7.27" height="7.27"/><rect class="cls-1" x="12.17" y="158.72" width="118.25" height="4.93"/><rect class="cls-1" x="12.17" y="179.56" width="118.25" height="4.93"/><rect class="cls-1" x="4.9" y="151.36" width="7.27" height="7.27"/><rect class="cls-1" x="130.43" y="151.36" width="7.27" height="7.27"/></svg>