<svg id="Layer_1" data-name="Layer 1" xmlns="http://www.w3.org/2000/svg" viewBox="0 0 50.41 47.23"><defs><style>.cls-1{fill:#fff;}</style></defs><title>building-1991</title><path class="cls-1" d="M920.39,1546a1,1,0,0,0-1,1v25.48H898.3v-18.27a1,1,0,0,0-1-1h-9.18a1,1,0,0,0-1,1v18.27h-5.49V1547a1,1,0,1,0-2,0v26.48a1,1,0,0,0,1,1h39.77a1,1,0,0,0,1-1V1547A1,1,0,0,0,920.39,1546Zm-31.27,26.48v-17.27h7.18v17.27h-7.18Z" transform="translate(-875.16 -1527.22)"/><path class="cls-1" d="M912.62,1562.33a1,1,0,0,0,1-1v-7.16a1,1,0,0,0-1-1H904a1,1,0,0,0-1,1v7.16a1,1,0,0,0,1,1h8.65Zm-7.65-7.16h6.65v5.16H905v-5.16Z" transform="translate(-875.16 -1527.22)"/><path class="cls-1" d="M925.37,1537.76l-7.89-10.16a1,1,0,0,0-.79-0.39h-32.6a1,1,0,0,0-.79.38l-7.93,10.16a1,1,0,0,0-.21.62,5.85,5.85,0,0,0,5.84,5.84,5.93,5.93,0,0,0,2-.35l0.47-.2,0.13-.06a5.94,5.94,0,0,0,.53-0.29l0,0a5.89,5.89,0,0,0,1.67-1.65,5.83,5.83,0,0,0,9.69,0,5.84,5.84,0,0,0,9.68,0,5.84,5.84,0,0,0,9.68,0l0.06,0.08,0.12,0.17a4.35,4.35,0,0,0,.29.35l0.13,0.15c0.13,0.14.27,0.27,0.41,0.39l0,0a5.81,5.81,0,0,0,1.74,1l0,0a5.75,5.75,0,0,0,.63.19,5.94,5.94,0,0,0,1.37.17,5.85,5.85,0,0,0,5.84-5.84A1,1,0,0,0,925.37,1537.76Zm-5.63,4.45a3.9,3.9,0,0,1-.91-0.12,4,4,0,0,1-.43-0.13h0a4,4,0,0,1-1.09-.64l-0.05,0a3.93,3.93,0,0,1-.35-0.34l-0.2-.24-0.07-.1c-0.07-.09-0.13-0.19-0.23-0.35a3.85,3.85,0,0,1-.49-1.87,1,1,0,0,0-2,0,3.84,3.84,0,1,1-7.68,0,1,1,0,0,0-2,0,3.84,3.84,0,0,1-7.68,0,1,1,0,0,0-2,0,3.84,3.84,0,1,1-7.68,0,1,1,0,1,0-2,0,3.79,3.79,0,0,1-.36,1.62,3.34,3.34,0,0,1-.2.37l0,0a3.9,3.9,0,0,1-1.2,1.21h0l-0.38.21-0.29.13-0.11,0a3.83,3.83,0,0,1-5.08-3.3l7.4-9.48H916.2l7.37,9.48A3.85,3.85,0,0,1,919.73,1542.21Z" transform="translate(-875.16 -1527.22)"/></svg>