<svg id="Layer_1" data-name="Layer 1" xmlns="http://www.w3.org/2000/svg" viewBox="0 0 43.45 49.09"><defs><style>.cls-1{fill:#fff;}</style></defs><title>building-1984</title><path class="cls-1" d="M790.06,642.1h5.32a1,1,0,0,0,1-1v-5.19a1,1,0,0,0-1-1h-5.32a1,1,0,0,0-1,1v5.19A1,1,0,0,0,790.06,642.1Zm1-5.19h3.32v3.19h-3.32v-3.19Z" transform="translate(-778.71 -626.97)"/><path class="cls-1" d="M790.06,651.48h5.32a1,1,0,0,0,1-1v-5.19a1,1,0,0,0-1-1h-5.32a1,1,0,0,0-1,1v5.19A1,1,0,0,0,790.06,651.48Zm1-5.19h3.32v3.19h-3.32v-3.19Z" transform="translate(-778.71 -626.97)"/><path class="cls-1" d="M790.06,660.86h5.32a1,1,0,0,0,1-1v-5.19a1,1,0,0,0-1-1h-5.32a1,1,0,0,0-1,1v5.19A1,1,0,0,0,790.06,660.86Zm1-5.19h3.32v3.19h-3.32v-3.19Z" transform="translate(-778.71 -626.97)"/><path class="cls-1" d="M821.38,647.17l-14.64-3.3V628.23a1,1,0,0,0,0-.12,1,1,0,0,0,0-.3,1,1,0,0,0-1.14-.83l-26,4a1,1,0,0,0-.84,1.14v0a1,1,0,0,0,0,.1v42.78a1,1,0,0,0,1,1h41.45a1,1,0,0,0,1-1V648.15A1,1,0,0,0,821.38,647.17Zm-40.67-14,24-3.74v44.66h-8.35v-9.29a1,1,0,0,0-1-1h-5.32a1,1,0,0,0-1,1v9.29h-8.35V633.14Zm10.35,40.92v-8.29h3.32v8.29h-3.32Zm29.09,0h-5.63V669a1,1,0,0,0-1-1h-0.16a1,1,0,0,0-1,1v5.1h-5.63V645.93l13.42,3v25.11Z" transform="translate(-778.71 -626.97)"/><rect class="cls-1" x="33.66" y="25.49" width="2.16" height="5.07" rx="1" ry="1"/><rect class="cls-1" x="33.66" y="32.6" width="2.16" height="5.07" rx="1" ry="1"/></svg>