<svg id="Layer_1" data-name="Layer 1" xmlns="http://www.w3.org/2000/svg" viewBox="0 0 32.76 25.14"><defs><style>.cls-1{fill:#fff;}</style></defs><title>camera-photo-history</title><path class="cls-1" d="M1015,4042.06a3.32,3.32,0,0,0-3.28-3.22h-4.53c-0.2-2.2-1.18-5.07-3.93-5.07h-9c-0.29,0-2.74.43-3,5.07l-5.44,0a3.53,3.53,0,0,0-3.52,3.56v13.13a3.32,3.32,0,0,0,.78,2.35,3.24,3.24,0,0,0,2.52,1h26.24a3.39,3.39,0,0,0,3.22-3.29v-13.55Zm-16.52,13.61a7.1,7.1,0,1,1,7.1-7.1A7.11,7.11,0,0,1,998.43,4055.68Zm10.7-10a1.41,1.41,0,1,1,1.41-1.41A1.41,1.41,0,0,1,1009.13,4045.7Z" transform="translate(-982.2 -4033.77)"/><circle class="cls-1" cx="16.24" cy="14.8" r="5.23"/></svg>