<svg id="Layer_1" data-name="Layer 1" xmlns="http://www.w3.org/2000/svg" viewBox="0 0 48.97 49.14"><defs><style>.cls-1{fill:#fff;}</style></defs><title>gears-1986</title><path class="cls-1" d="M392.33,753a6.61,6.61,0,1,0,6.61,6.61A6.62,6.62,0,0,0,392.33,753Zm0,11.24a4.63,4.63,0,1,1,4.63-4.63A4.64,4.64,0,0,1,392.33,764.2Z" transform="translate(-376.17 -726.6)"/><path class="cls-1" d="M407.49,756.49L404,756a12.15,12.15,0,0,0-.93-2.24l2.13-2.77a1,1,0,0,0,0-1.2,16.27,16.27,0,0,0-3.16-3.16,1,1,0,0,0-1.2,0l-2.76,2.13a12.19,12.19,0,0,0-2.24-.93l-0.45-3.46a1,1,0,0,0-.85-0.85,16,16,0,0,0-4.46,0,1,1,0,0,0-.85.85l-0.45,3.45a12.15,12.15,0,0,0-2.25.93l-2.77-2.13a1,1,0,0,0-1.2,0A16.4,16.4,0,0,0,381,748l-0.24.24a16.35,16.35,0,0,0-1.34,1.56,1,1,0,0,0,0,1.2l2.12,2.76a12.17,12.17,0,0,0-.93,2.25l-3.46.45a1,1,0,0,0-.85.85,16.42,16.42,0,0,0-.15,2v0.46a16.4,16.4,0,0,0,.15,2,1,1,0,0,0,.85.85l3.46,0.45a12.13,12.13,0,0,0,.93,2.25l-2.13,2.76a1,1,0,0,0,0,1.2,16.44,16.44,0,0,0,1.35,1.57l0.24,0.24a16.24,16.24,0,0,0,1.56,1.35,1,1,0,0,0,1.2,0l2.77-2.13a12.18,12.18,0,0,0,2.25.93l0.45,3.45a1,1,0,0,0,.85.85,16,16,0,0,0,4.46,0,1,1,0,0,0,.85-0.85l0.45-3.46a12.12,12.12,0,0,0,2.24-.93l2.76,2.13a1,1,0,0,0,1.2,0,16.27,16.27,0,0,0,3.16-3.16,1,1,0,0,0,0-1.2l-2.13-2.77a12.15,12.15,0,0,0,.93-2.24l3.46-.45a1,1,0,0,0,.85-0.85,16,16,0,0,0,0-4.47A1,1,0,0,0,407.49,756.49Zm-1,4.29-3.34.44a1,1,0,0,0-.83.75,10.16,10.16,0,0,1-1.22,2.93,1,1,0,0,0,.06,1.12l2.06,2.67a14.3,14.3,0,0,1-1.72,1.72l-2.67-2.05a1,1,0,0,0-1.12-.06,10.17,10.17,0,0,1-2.94,1.22,1,1,0,0,0-.75.83l-0.44,3.34a13.86,13.86,0,0,1-2.43,0l-0.44-3.34a1,1,0,0,0-.75-0.83,10.18,10.18,0,0,1-2.94-1.22,1,1,0,0,0-1.12.06l-2.67,2.06c-0.27-.23-0.53-0.46-0.78-0.71l-0.23-.23q-0.37-.38-0.71-0.78l2.05-2.67a1,1,0,0,0,.06-1.12,10.15,10.15,0,0,1-1.22-2.94,1,1,0,0,0-.83-0.75l-3.34-.44c0-.33,0-0.67,0-1v-0.43c0-.34,0-0.67,0-1l3.34-.44a1,1,0,0,0,.83-0.75,10.17,10.17,0,0,1,1.22-2.94,1,1,0,0,0-.06-1.12l-2.05-2.67c0.23-.27.46-0.53,0.7-0.77l0.23-.23c0.26-.25.52-0.49,0.79-0.72l2.67,2.06a1,1,0,0,0,1.12.06,10.16,10.16,0,0,1,2.94-1.22,1,1,0,0,0,.75-0.83l0.44-3.34a13.86,13.86,0,0,1,2.43,0l0.44,3.34a1,1,0,0,0,.75.83,10.19,10.19,0,0,1,2.94,1.22,1,1,0,0,0,1.12-.06l2.67-2.05a14.3,14.3,0,0,1,1.72,1.72l-2.06,2.67a1,1,0,0,0-.06,1.12,10.16,10.16,0,0,1,1.22,2.93,1,1,0,0,0,.83.75l3.34,0.44c0,0.41.05,0.82,0.05,1.22S406.5,760.37,406.47,760.79Z" transform="translate(-376.17 -726.6)"/><path class="cls-1" d="M415.29,733.91a4.64,4.64,0,1,0,2.52,2.5A4.62,4.62,0,0,0,415.29,733.91Zm0.7,5.3a2.66,2.66,0,1,1,0-2A2.65,2.65,0,0,1,416,739.21Z" transform="translate(-376.17 -726.6)"/><path class="cls-1" d="M424.64,740.05l-2-1.16a9,9,0,0,0,0-1.45l2-1.18a1,1,0,0,0,.46-1.11,12,12,0,0,0-1.27-3,1,1,0,0,0-1.11-.45l-2.26.62a9.06,9.06,0,0,0-1-1L420,729a1,1,0,0,0-.46-1.11,11.8,11.8,0,0,0-3.05-1.25,1,1,0,0,0-1.11.47l-1.16,2a9,9,0,0,0-1.46,0l-1.18-2a1,1,0,0,0-1.11-.46,12.08,12.08,0,0,0-1.46.49l-0.23.1a12.07,12.07,0,0,0-1.35.69A1,1,0,0,0,407,729l0.62,2.26a9.07,9.07,0,0,0-1,1l-2.26-.6a1,1,0,0,0-1.11.46,12.18,12.18,0,0,0-.67,1.34l-0.13.31a12.18,12.18,0,0,0-.46,1.41,1,1,0,0,0,.47,1.11l2,1.16a9.06,9.06,0,0,0,0,1.46l-2,1.18a1,1,0,0,0-.46,1.11,12.06,12.06,0,0,0,.49,1.45l0.1,0.23a12.07,12.07,0,0,0,.69,1.36,1,1,0,0,0,1.11.45l2.26-.62a9,9,0,0,0,1,1l-0.6,2.26a1,1,0,0,0,.46,1.11,12,12,0,0,0,1.48.73,12.12,12.12,0,0,0,1.57.52,1,1,0,0,0,1.11-.47l1.16-2a9.09,9.09,0,0,0,1.45,0l1.18,2a1,1,0,0,0,1.11.46,12,12,0,0,0,3-1.28,1,1,0,0,0,.45-1.11l-0.62-2.26a9,9,0,0,0,1-1l2.26,0.6a1,1,0,0,0,1.11-.46,11.82,11.82,0,0,0,1.25-3.05A1,1,0,0,0,424.64,740.05ZM422.75,742q-0.12.29-.26,0.58l-2.14-.56a1,1,0,0,0-1.06.38,7.06,7.06,0,0,1-1.55,1.57,1,1,0,0,0-.37,1.06l0.58,2.13a10,10,0,0,1-1.17.49l-1.11-1.91a1,1,0,0,0-1-.48,7.15,7.15,0,0,1-2.21,0,1,1,0,0,0-1,.49l-1.1,1.92-0.6-.22-0.57-.26,0.56-2.13a1,1,0,0,0-.38-1.06,7.06,7.06,0,0,1-1.57-1.56,1,1,0,0,0-1.06-.37l-2.13.58q-0.11-.23-0.22-0.47L404.3,742c-0.07-.16-0.13-0.32-0.18-0.49l1.91-1.11a1,1,0,0,0,.48-1,7.08,7.08,0,0,1,0-2.21,1,1,0,0,0-.49-1L404.09,735q0.08-.23.16-0.44l0.12-.28,0.2-.44,2.13,0.56a1,1,0,0,0,1.06-.38,7.06,7.06,0,0,1,1.56-1.57,1,1,0,0,0,.37-1.06l-0.58-2.13,0.46-.21,0.21-.09,0.49-.19,1.11,1.91a1,1,0,0,0,1,.48,7.1,7.1,0,0,1,2.21,0,1,1,0,0,0,1-.49l1.09-1.92,0.59,0.22,0.58,0.26-0.56,2.14a1,1,0,0,0,.38,1.06,7.08,7.08,0,0,1,1.57,1.56,1,1,0,0,0,1.06.37l2.13-.58a10,10,0,0,1,.49,1.17L421,736.06a1,1,0,0,0-.48,1,7.07,7.07,0,0,1,0,2.21,1,1,0,0,0,.49,1l1.92,1.09C422.91,741.59,422.83,741.79,422.75,742Z" transform="translate(-376.17 -726.6)"/></svg>