<svg id="Layer_1" data-name="Layer 1" xmlns="http://www.w3.org/2000/svg" viewBox="0 0 48.92 33.01"><defs><style>.cls-1{fill:#fff;}</style></defs><title>glasses-1983</title><path class="cls-1" d="M524.13,656.75a0.94,0.94,0,0,0-.06-0.19l-9.48-17.35c-0.1-.18-2.52-4.52-5.94-4.52h0c-2,0-3.88,1.55-5.45,4.54a1,1,0,0,0,1.77.93c0.83-1.57,2.14-3.45,3.7-3.47h0c1.85,0,3.65,2.51,4.19,3.48l6.73,12.33a13.77,13.77,0,0,0-5.83-1.26c-4.48,0-8.34,2-10.06,4.9a16.74,16.74,0,0,0-6.68.15c-1.67-3-5.59-5-10.16-5a13.78,13.78,0,0,0-5.79,1.24l6.66-12.2c0.54-1,2.33-3.48,4.19-3.48h0c1.56,0,2.87,1.89,3.7,3.47a1,1,0,1,0,1.77-.93c-1.57-3-3.4-4.52-5.45-4.54-3.48,0-5.88,4.33-6,4.52l-9.2,16.84-0.17.31-0.11.2s0,0,0,.06a6.36,6.36,0,0,0-.64,2.74c0,4.54,4.94,8.23,11,8.23s11-3.69,11-8.23a6.2,6.2,0,0,0-.14-1.27,14.7,14.7,0,0,1,5.19-.15,6.21,6.21,0,0,0-.17,1.41c0,4.54,4.94,8.23,11,8.23s11-3.69,11-8.23A6.35,6.35,0,0,0,524.13,656.75Zm-37.28,8.95c-5,0-9-2.79-9-6.23a4.47,4.47,0,0,1,.39-1.81l0,0,0.4-.73c1.42-2.15,4.56-3.66,8.2-3.66,5,0,9,2.79,9,6.23S491.82,665.7,486.85,665.7Zm26.9,0c-5,0-9-2.79-9-6.23a4.47,4.47,0,0,1,.39-1.81l0-.09c1.16-2.51,4.57-4.33,8.58-4.33,5,0,9,2.79,9,6.23S518.72,665.7,513.75,665.7Z" transform="translate(-475.84 -634.7)"/></svg>