<svg id="Layer_1" data-name="Layer 1" xmlns="http://www.w3.org/2000/svg" viewBox="0 0 49.47 49.47"><defs><style>.cls-1{fill:#fff;}</style></defs><title>globe-2003</title><path class="cls-1" d="M900.58,1426.13a24.73,24.73,0,1,0,24.73,24.73A24.76,24.76,0,0,0,900.58,1426.13Zm0,47.47a22.73,22.73,0,1,1,22.73-22.73A22.76,22.76,0,0,1,900.58,1473.6Z" transform="translate(-875.84 -1426.13)"/><path class="cls-1" d="M919.79,1442.27a1,1,0,0,0-.94,1.05c0,0.92-1,2-2.82,3-2.78,1.51-2.38,2.65-1.3,5.72,0.84,2.38-3.63,9.78-5.62,11.29a8.93,8.93,0,0,1-.53-3.11v-2.67c0-.08,0-0.32-0.43-3.31l0-.11-0.67-2.59a1,1,0,0,0-.22-0.42l-2.17-2.42a1,1,0,0,0-.37-0.26,59,59,0,0,0-6.42-2.22,0.55,0.55,0,0,1-.4-0.61,2.58,2.58,0,0,1,1.29-2.44,1.87,1.87,0,0,1,1.19-.16,1.6,1.6,0,0,0,1.4-.34c0.55-.54.54-1.35,0.39-3.07a4.06,4.06,0,0,0-1.33-2.94c-1.2-1-2.8-.78-4-0.64a7.84,7.84,0,0,1-.88.08c-2.3,0-2.67,1.74-3.48,5.55l-0.16.75,0,0.18a2.23,2.23,0,0,1-.25-0.34,29.94,29.94,0,0,1-.48-4.29,1,1,0,0,0-1.87-.43l-1.67,2.92a0.51,0.51,0,0,0-.08.2s-0.35.78-2.47,1.52c-0.32.11-.48,0.12-0.5,0.13-0.28-.51.24-2.77,1.08-4.72a1,1,0,1,0-1.83-.8c-0.68,1.57-2.12,5.38-.71,6.89a2.27,2.27,0,0,0,2.63.38c2.73-1,3.48-2.16,3.68-2.71l0-.05a6.27,6.27,0,0,0,.43,1.9c0.17,0.3,1.12,1.81,2.42,1.61,0.8-.12,1.34-0.79,1.59-2l0.16-.76c0.79-3.69.94-4,1.52-4a9.67,9.67,0,0,0,1.12-.09,3.63,3.63,0,0,1,2.47.21,2.21,2.21,0,0,1,.6,1.56c0,0.58.07,1,.08,1.22a3.67,3.67,0,0,0-1.93.38,4.56,4.56,0,0,0-2.41,4.47,2.53,2.53,0,0,0,2,2.33,54.64,54.64,0,0,1,5.88,2l1.85,2.06,0.59,2.3c0.19,1.32.39,2.79,0.4,3v2.69c0,1.24.22,4.22,1.67,5a1.68,1.68,0,0,0,.78.2,2,2,0,0,0,1.09-.36c1.94-1.27,7.82-9.91,6.49-13.69-0.91-2.6-.91-2.6.37-3.3,2.66-1.44,4-3.08,3.86-4.86A1,1,0,0,0,919.79,1442.27Z" transform="translate(-875.84 -1426.13)"/><path class="cls-1" d="M888.88,1453.75a8.19,8.19,0,0,1-2-.92,8.52,8.52,0,0,0-1.88-1.43,10.81,10.81,0,0,1-1.29-.88,1.39,1.39,0,0,0-1.44-.22c-0.39.17-1.58,0.68-2.09,6.48a1,1,0,0,0,.91,1.08,1,1,0,0,0,1.08-.91,21.19,21.19,0,0,1,.82-4.48c0.38,0.27.7,0.46,1,.64a6.57,6.57,0,0,1,1.49,1.13,8,8,0,0,0,2.67,1.38,15.31,15.31,0,0,1,1.66.71l-0.09.08a8.41,8.41,0,0,0-2.59,3.19c-0.77,1.55-1.92,4.91-2,5a1,1,0,0,0,.62,1.27,1,1,0,0,0,.32.05,1,1,0,0,0,.95-0.68s1.15-3.37,1.87-4.8a6.49,6.49,0,0,1,2.14-2.6l0.31-.28a1.68,1.68,0,0,0,.64-1.6C891.81,1454.87,890.45,1454.35,888.88,1453.75Z" transform="translate(-875.84 -1426.13)"/></svg>