<svg id="Layer_1" data-name="Layer 1" xmlns="http://www.w3.org/2000/svg" viewBox="0 0 312.5 337.5"><defs><style>.cls-1{fill:#fff;}</style></defs><title>leaf-2013</title><path class="cls-1" d="M620.07,318.26l75.06-61L679.59,250c-6.84-2.44-4.93-6.28-2.48-15.54l11.45-41.64L645,202a6.68,6.68,0,0,1-7.74-4.63l-5.6-19.61-34.48,38.6c-4.91,6.17-14.84,6.17-11.74-8.11L600.13,130l-19.76,10.23c-5.55,3.09-11.09,3.61-14.19-1.93l-27.3-50.9-27.29,50.9c-3.1,5.54-8.64,5-14.19,1.93L477.63,130l14.72,78.18c3.1,14.28-6.84,14.28-11.74,8.11l-34.48-38.6-5.6,19.61a6.68,6.68,0,0,1-7.74,4.63l-43.6-9.17,11.45,41.64c2.45,9.27,4.36,13.1-2.48,15.54l-15.54,7.3,75.06,61a9.84,9.84,0,0,1,3.41,10.21L454.53,350c25.84-3,49-7.46,74.86-10.22,2.28-.24,6.11,3.52,6.09,6.17l-3.43,79h12.57l-2-78.81c0-2.64,3.45-6.58,5.73-6.34,25.86,2.76,49,7.24,74.86,10.22l-6.57-21.56A9.84,9.84,0,0,1,620.07,318.26Z" transform="translate(-382.63 -87.45)"/></svg>