<?xml version="1.0" encoding="utf-8"?>
<!-- Generator: Adobe Illustrator 19.2.0, SVG Export Plug-In . SVG Version: 6.00 Build 0)  -->
<svg version="1.1" id="Layer_1" xmlns="http://www.w3.org/2000/svg" xmlns:xlink="http://www.w3.org/1999/xlink" x="0px" y="0px"
	 viewBox="0 0 320 320" style="enable-background:new 0 0 320 320;" xml:space="preserve">
<style type="text/css">
	.st0{fill:#C87DC1;}
</style>
<title>35-years-background-vector-2</title>
<path class="st0" d="M160.2,0.2C71.9,0.2,0.4,71.8,0.4,160s71.5,159.8,159.8,159.8S319.9,248.2,319.9,160S248.4,0.2,160.2,0.2z
	 M197.5,230.3c-2.9,2.5-5.8,3.8-8.8,3.8c-3,0-4.9-0.3-5.8-1c-9.3-7.3-23-17.2-41.2-29.8c-18.2-12.6-33-23.4-44.5-32.4
	c-3.3-2.9-5-6.3-5-10.2c0-4,1.9-7.2,5.6-9.6c30.6-25.3,58.9-46.5,84.6-63.5c2.2-1.1,4.7-1.7,7.4-1.7c2.8,0,5.3,1.2,7.6,3.6
	c2.3,2.4,3.5,5.2,3.5,8.3c0,3.1-0.9,5.8-2.6,8.3c-2.2,1.5-27.3,19.8-75.4,54.9c5.3,4,17.1,12.1,35.5,24.5
	c18.4,12.3,31.9,22,40.5,29.1c1.8,2.9,2.6,5.6,2.6,8.1C201.8,225.2,200.3,227.7,197.5,230.3z"/>
</svg>
