<svg id="Layer_1" data-name="Layer 1" xmlns="http://www.w3.org/2000/svg" viewBox="0 0 49.47 47.23"><defs><style>.cls-1{fill:#fff;}</style></defs><title>open-sign-1981</title><path class="cls-1" d="M825.09,2663l-5.45-20.4a1,1,0,0,0-1.22-.71l-7.7,2.06-14-10.66a3.65,3.65,0,0,0,.14-2.3,3.69,3.69,0,1,0-5.87,3.83l-6.85,16.24-7.7,2.06a1,1,0,0,0-.71,1.22l5.45,20.4a1,1,0,0,0,1,.74,1,1,0,0,0,.26,0l42-11.23A1,1,0,0,0,825.09,2663Zm-33.3-31.9a1.68,1.68,0,0,1,1-.79,1.72,1.72,0,0,1,.44-0.06,1.69,1.69,0,0,1,1.63,1.26,1.69,1.69,0,0,1-1.15,2.05l-0.06,0,0,0.07a1.72,1.72,0,0,1-2-1.2A1.68,1.68,0,0,1,791.79,2631.1Zm1,4.5a3.63,3.63,0,0,0,2.68-.71l12.79,9.71-21.72,5.8Zm-10,37.66-4.93-18.46L818,2644.08l4.93,18.46Z" transform="translate(-775.66 -2628.25)"/><path class="cls-1" d="M788.45,2657.63a4.54,4.54,0,0,0-1.16.16,4.22,4.22,0,0,0-2.66,2.06,4.39,4.39,0,0,0-.36,3.25,4.22,4.22,0,0,0,4.08,3.22,4.5,4.5,0,0,0,1.16-.16,4.22,4.22,0,0,0,2.66-2.06,4.39,4.39,0,0,0,.36-3.25A4.22,4.22,0,0,0,788.45,2657.63Zm0.62,6.82a2.47,2.47,0,0,1-.64.09,2.49,2.49,0,0,1-2.37-2,2.42,2.42,0,0,1,1.67-3.07,2.45,2.45,0,0,1,.63-0.09,2.49,2.49,0,0,1,2.37,2A2.42,2.42,0,0,1,789.06,2664.44Z" transform="translate(-775.66 -2628.25)"/><path class="cls-1" d="M795.85,2655.62l-2.28.61a0.9,0.9,0,0,0-.55.43,0.93,0.93,0,0,0-.09.7l1.71,6.39a0.93,0.93,0,0,0,.89.69,0.9,0.9,0,0,0,.23,0,0.93,0.93,0,0,0,.66-1.13L796,2661.6l1.25-.34c2-.53,3-2,2.54-3.73S797.74,2655.12,795.85,2655.62Zm2.13,2.44a1.3,1.3,0,0,1-1.19,1.49l-1.29.34-0.58-2.18,1.33-.35C797.17,2657.11,797.78,2657.33,798,2658.06Z" transform="translate(-775.66 -2628.25)"/><path class="cls-1" d="M807.13,2659.5l-3.61,1-0.41-1.54,3.1-.83a0.88,0.88,0,0,0-.23-1.73l-0.22,0-3.1.83-0.39-1.48,3.56-1a0.88,0.88,0,0,0,.62-1.08,0.9,0.9,0,0,0-1.08-.62l-4.45,1.19a0.92,0.92,0,0,0-.64,1.13l1.7,6.34a0.92,0.92,0,0,0,.89.69,0.91,0.91,0,0,0,.23,0l4.5-1.2a0.88,0.88,0,0,0,.62-1.08A0.9,0.9,0,0,0,807.13,2659.5Z" transform="translate(-775.66 -2628.25)"/><path class="cls-1" d="M814.63,2651.5a0.93,0.93,0,0,0-1.11-.65,0.91,0.91,0,0,0-.65,1.12l1.07,4-4.67-3.51a1.09,1.09,0,0,0-.9-0.21l-0.12,0a0.93,0.93,0,0,0-.65,1.12l1.72,6.44a0.91,0.91,0,0,0,.88.68,0.89,0.89,0,0,0,.23,0,0.91,0.91,0,0,0,.65-1.12l-1.11-4.14,4.82,3.63a1.15,1.15,0,0,0,.66.24,1,1,0,0,0,.28,0,0.88,0.88,0,0,0,.62-1.09Z" transform="translate(-775.66 -2628.25)"/></svg>