<svg id="Layer_1" data-name="Layer 1" xmlns="http://www.w3.org/2000/svg" viewBox="0 0 14.69 16.32"><defs><style>.cls-1{fill:#fff;}</style></defs><title>palm-tree-1997</title><path class="cls-1" d="M596.21,554.26h-2.45c1.22-1.22,4.9-.61,4.9-0.61,2.45-1.84,3.67-.61,3.67-0.61a6.16,6.16,0,0,0-1.84.61c4.9,0,5.51,1.22,5.51,1.22a13.82,13.82,0,0,0-5.51,0c3.67,1.84,4.29,4.29,4.29,4.29a9.75,9.75,0,0,0-5.13-3c1.33,5.79,1.31,7.4,1,11.59a4.74,4.74,0,0,1,3.52,1.22H595a6.88,6.88,0,0,1,3.52-1.22,23.61,23.61,0,0,0,.27-10.43,15.14,15.14,0,0,0-.73,4.31c-1.22-1.22-.61-4.9-0.61-4.9-1.22,0-4.29,2.45-4.29,2.45,0-1.84,3.06-3.67,3.06-3.67-3.67.61-4.9,1.84-4.9,1.84C592.54,554.87,596.21,554.26,596.21,554.26Z" transform="translate(-591.31 -552.63)"/></svg>