<svg id="Layer_1" data-name="Layer 1" xmlns="http://www.w3.org/2000/svg" viewBox="0 0 49.54 49.17"><defs><style>.cls-1{fill:#fff;}</style></defs><title>person-1985</title><path class="cls-1" d="M90,2247.06c0.73,5.17,4.85,10.42,10.28,10.42s9.55-5.25,10.28-10.42a2.94,2.94,0,0,0,2-2.8,3,3,0,0,0-.93-2.18,13,13,0,0,0,.42-3.27c0-6.82-5.26-12.37-11.72-12.37s-11.72,5.55-11.72,12.37a13,13,0,0,0,.42,3.27,3,3,0,0,0-.93,2.18A2.93,2.93,0,0,0,90,2247.06Zm0.56-3.67a1,1,0,0,0,.53-1.21,11,11,0,0,1-.53-3.37c0-5.72,4.36-10.37,9.72-10.37s9.72,4.65,9.72,10.37a11,11,0,0,1-.53,3.37,1,1,0,0,0,.52,1.21,1,1,0,0,1,.52.87,0.9,0.9,0,0,1-.87.95h0a1,1,0,0,0-1,.93c-0.33,4.42-3.84,9.34-8.37,9.34s-8-4.92-8.37-9.34a1,1,0,0,0-1-.92,0.9,0.9,0,0,1-.84-0.95A1,1,0,0,1,90.55,2243.39Z" transform="translate(-75.5 -2226.44)"/><path class="cls-1" d="M124.43,2268.61a35.15,35.15,0,0,0-15.82-8.91,2,2,0,0,0-.83-0.18h-0.52a2,2,0,0,0-.94.24,14.3,14.3,0,0,1-12.12,0,2,2,0,0,0-.94-0.23H92.88a2.05,2.05,0,0,0-.46.05,35.08,35.08,0,0,0-16.32,9,2,2,0,0,0-.61,1.43v3.57a2,2,0,0,0,2,2H123a2,2,0,0,0,2-2V2270A2,2,0,0,0,124.43,2268.61Zm-1.39,5H77.5V2270a33.08,33.08,0,0,1,15.39-8.52h0.38a16.26,16.26,0,0,0,14,0h0.52a1,1,0,0,0,.24.1,33.14,33.14,0,0,1,15,8.43v3.57Zm0,1v-1h0v1Z" transform="translate(-75.5 -2226.44)"/></svg>