<svg id="Layer_1" data-name="Layer 1" xmlns="http://www.w3.org/2000/svg" viewBox="0 0 41.77 49.02"><defs><style>.cls-1{fill:#fff;}</style></defs><title>peter-1995</title><path class="cls-1" d="M815.5,2342l0-.14a2.82,2.82,0,0,0,.11-0.82,4.78,4.78,0,0,0-1.23-2.57,4.88,4.88,0,0,1-.52-0.57,2,2,0,0,0-2-1.9l-0.05-.11a2.16,2.16,0,0,0-.46-0.73,1.91,1.91,0,0,1-.14-0.18,2.11,2.11,0,0,0-1.65-1.05,1.55,1.55,0,0,0-.31,0,2.19,2.19,0,0,0-1.07-.91l-0.27-.1a3,3,0,0,0-2-.19,1.73,1.73,0,0,0-.41-0.69,2.26,2.26,0,0,0-2.79,0,1.16,1.16,0,0,1-.36-0.23,2.1,2.1,0,0,0-1.49-.53,2.35,2.35,0,0,0-1.65.58,4.18,4.18,0,0,1-1.43.33,4.07,4.07,0,0,0-2.33.82,1.25,1.25,0,0,0-.25.41,8.36,8.36,0,0,1-2.1,1.23,2.49,2.49,0,0,0-1.7,2.71,3.79,3.79,0,0,1-1,1.49,2.05,2.05,0,0,0-.6,1.83,1,1,0,0,1,0,.33,4.76,4.76,0,0,0-.09.85,2.63,2.63,0,0,1-.13.79,4.88,4.88,0,0,0,.73,3.22l0.19,0.32,0.36,0.12a1.75,1.75,0,0,1,.66.4,1.51,1.51,0,0,0,1.61,1.49,4.45,4.45,0,0,0,.83-0.1l0.25,0a2.79,2.79,0,0,1,1.56.91,2.31,2.31,0,0,0,1.56.81,2,2,0,0,0,1.2-.49c0.11-.08.23-0.16,0.38-0.25l0.07,0,0.19,0.19,0.21,0.22a2.25,2.25,0,0,0,3.14-.05,3.3,3.3,0,0,1,1.21-.12l0,0.06a1.41,1.41,0,0,0,.09,1.35,1.24,1.24,0,0,0,1.06.52,2.6,2.6,0,0,0,.64-0.1c0.1,0.19.23,0.42,0.4,0.7a3.83,3.83,0,0,0,1.5,1.33,2.57,2.57,0,0,1,.54.37,1.39,1.39,0,0,0,1,.42h0a2.47,2.47,0,0,0,1.83-1.41,6.71,6.71,0,0,1,.46-0.62,2.53,2.53,0,0,1,1.91-.75,1.73,1.73,0,0,0,1.35-.58,1.75,1.75,0,0,0,.26-1.49,1.8,1.8,0,0,1,0-.25,1.41,1.41,0,0,1,.15-1c0.38-.43,1.36-1.53.59-2.58l0.2-.23A2.34,2.34,0,0,0,815.5,2342Zm-1.79,4.21-0.26.3a3.14,3.14,0,0,0-.65,2.38,2.44,2.44,0,0,0,0,.27,4.34,4.34,0,0,0-3,1.4,8.73,8.73,0,0,0-.61.81l-0.23.33c-0.17-.12-0.34-0.21-0.5-0.3a1.92,1.92,0,0,1-.8-0.66c-0.16-.26-0.28-0.48-0.37-0.65A1.67,1.67,0,0,0,806,2349a1.38,1.38,0,0,0-.16-1.19,1.43,1.43,0,0,0-1.29-.56h-0.67a3.55,3.55,0,0,0-2.72.74,0.21,0.21,0,0,1-.31,0l-0.18-.18a2.17,2.17,0,0,0-1.57-.84,2.24,2.24,0,0,0-1.16.36c-0.2.12-.37,0.24-0.52,0.34l0,0-0.17-.16a4.61,4.61,0,0,0-3-1.48h0a3.68,3.68,0,0,0-.55.08l-0.14,0a2.81,2.81,0,0,0-1.56-1.59,2.88,2.88,0,0,1-.38-1.39,4.57,4.57,0,0,0,.2-1.28,2.87,2.87,0,0,1,.05-0.53,2.86,2.86,0,0,0,0-1,0.08,0.08,0,0,0,0-.07,0.81,0.81,0,0,1,.14-0.18c1.07-1.21,1.54-2.09,1.52-2.86,0-.61.11-0.69,0.36-0.77,0,0,2.5-1,3.2-2.15a3.37,3.37,0,0,1,.91-0.2,5.26,5.26,0,0,0,2.72-.87,1.33,1.33,0,0,1,.44,0,2.86,2.86,0,0,0,1.8.77,1.89,1.89,0,0,0,1.26-.5,1.52,1.52,0,0,0,2.27,1.15,0.57,0.57,0,0,1,.27-0.08,1.64,1.64,0,0,1,.5.15l0.3,0.12,0.16,0.22a1.76,1.76,0,0,0,1.42.93,1.45,1.45,0,0,0,.42-0.06l0.14,0.18a2.7,2.7,0,0,0,.29.35,1.41,1.41,0,0,1,.08.16,1.84,1.84,0,0,0,1.86,1.27,0.33,0.33,0,0,1,0,.12,2.93,2.93,0,0,0,1.12,1.82,3.22,3.22,0,0,1,.63,1.2,1.93,1.93,0,0,1-.05.26,1.88,1.88,0,0,0,.41,2,2.4,2.4,0,0,1,.23.37h0C813.21,2344.85,813.33,2345.67,813.71,2346.21Z" transform="translate(-779.26 -2326.77)"/><path class="cls-1" d="M820.44,2339c-1.44-10-14.9-12.21-17.31-12.21H802.4c-16.4,0-18.59,11.26-18.86,14.69-0.26,2.39-1.29,6.79-2.94,8.44-0.54.54-1.79,1.79-1.17,3.32s2.13,1.49,3.09,1.5c-0.05.25-.1,0.44-0.15,0.6a4.11,4.11,0,0,0-.19,1.21,2.13,2.13,0,0,0,.8,1.72,2.27,2.27,0,0,0,.66,2.43,6.3,6.3,0,0,1,.09,1.55c0,3.3,3.24,4.88,5.79,4.47l0.25,0a10.83,10.83,0,0,1,1.59-.18,1,1,0,0,1,1,.36,13,13,0,0,0,.88,1c0.8,0.88,1.29,1.41,1.29,3.81a9.29,9.29,0,0,0,.38,3.19l0.11,0.29a1,1,0,0,0,.93.64,1,1,0,0,0,.28,0l16.93-5a1,1,0,0,0,.71-1.09,23.17,23.17,0,0,1,2.5-13.25c0.66-1.2,1.25-2.2,1.76-3.08C821.1,2348.2,821.64,2347.28,820.44,2339Zm-4.05,13.35c-0.51.88-1.1,1.89-1.77,3.1a25.37,25.37,0,0,0-2.82,13.62l-15.16,4.49a12.72,12.72,0,0,1-.12-1.88c0-3-.72-4-1.81-5.16a11.13,11.13,0,0,1-.75-0.87,3,3,0,0,0-2.61-1.17,12.13,12.13,0,0,0-1.9.2l-0.25,0c-1.56.25-3.48-.52-3.48-2.49s-0.12-2.4-.72-3c-0.15-.15-0.26-0.26,0-0.65l0.17-.25a1,1,0,0,0-.61-1.49c-0.44-.11-0.44-0.23-0.44-0.33a2.24,2.24,0,0,1,.12-0.67,10.74,10.74,0,0,0,.36-2,1,1,0,0,0-.78-1.08,7.1,7.1,0,0,0-1.28-.09,1.77,1.77,0,0,1-1.31-.25,1.6,1.6,0,0,1,.73-1.16c2.74-2.73,3.51-9.57,3.52-9.67,1-11.95,13.16-12.88,16.87-12.88h0.72c1.81,0,14.11,2,15.34,10.5C819.56,2346.87,819.2,2347.5,816.39,2352.34Z" transform="translate(-779.26 -2326.77)"/></svg>