<?xml version="1.0" encoding="utf-8"?>
<!-- Generator: Adobe Illustrator 19.2.1, SVG Export Plug-In . SVG Version: 6.00 Build 0)  -->
<svg version="1.1" id="Layer_1" xmlns="http://www.w3.org/2000/svg" xmlns:xlink="http://www.w3.org/1999/xlink" x="0px" y="0px"
	 viewBox="0 0 169.2 46.9" style="enable-background:new 0 0 169.2 46.9;" xml:space="preserve">
<style type="text/css">
	.st0{fill:#FFFFFF;}
</style>
<g>
	<path class="st0" d="M22.8,28.6c-3.1,0-5.8-2.6-5.8-5.8c0-3.1,2.6-5.7,5.8-5.7c3.1,0,5.7,2.6,5.7,5.7
		C28.5,25.9,25.9,28.6,22.8,28.6 M35.7,28.9c1-1.9,1.4-3.9,1.4-6.1c0-7.9-6.5-14.4-14.4-14.4c-7.9,0-14.4,6.5-14.4,14.4
		c0,7.9,6.5,14.4,14.4,14.4c2,0,3.9-0.4,5.7-1.2l2.8,2.6l7.1-7.1L35.7,28.9z M0,22.7C0,10.2,10.2,0,22.7,0
		c12.5,0,22.7,10.2,22.7,22.7c0,12.5-10.2,22.7-22.7,22.7C10.2,45.4,0,35.2,0,22.7"/>
</g>
<rect x="75.4" y="14.8" class="st0" width="14.8" height="1.1"/>
<g>
	<path class="st0" d="M76.8,35.4v-4.5L76,31.8l-0.4-0.4l1.3-1.4h0.6v5.3H76.8z"/>
	<path class="st0" d="M78.5,32.7c0-1.3,0.6-2.8,2-2.8c1.5,0,2,1.4,2,2.8c0,1.3-0.6,2.8-2,2.8C79.1,35.5,78.5,34,78.5,32.7z
		 M81.9,32.7c0-1.1-0.3-2.2-1.4-2.2c-1,0-1.4,1.1-1.4,2.2s0.3,2.2,1.4,2.2C81.6,34.9,81.9,33.8,81.9,32.7z"/>
	<path class="st0" d="M83.7,34.8l0.3-0.5c0.3,0.3,0.6,0.5,1.1,0.5c1.1,0,1.5-1.1,1.5-2.1c0-0.1,0-0.1,0-0.2
		c-0.2,0.4-0.8,0.8-1.5,0.8c-1,0-1.8-0.6-1.8-1.7c0-0.9,0.7-1.7,1.9-1.7c1.5,0,2.1,1.3,2.1,2.8c0,1.4-0.7,2.8-2.2,2.8
		C84.5,35.4,84,35.2,83.7,34.8z M86.6,32c-0.1-0.7-0.4-1.5-1.3-1.5c-0.8,0-1.2,0.6-1.2,1.1c0,0.8,0.5,1.2,1.2,1.2
		C85.8,32.8,86.3,32.5,86.6,32z"/>
	<path class="st0" d="M90.2,32.7c0-1.6,1.2-2.8,2.7-2.8c0.9,0,1.6,0.4,2,1.1l-0.6,0.3c-0.3-0.5-0.9-0.8-1.5-0.8
		c-1.2,0-2.1,0.9-2.1,2.2c0,1.3,0.9,2.2,2.1,2.2c0.6,0,1.2-0.3,1.5-0.8l0.6,0.3c-0.4,0.6-1.1,1.1-2,1.1
		C91.4,35.5,90.2,34.3,90.2,32.7z"/>
	<path class="st0" d="M98.2,35.4v-0.4c-0.3,0.4-0.8,0.5-1.3,0.5c-0.6,0-1.3-0.4-1.3-1.3c0-0.9,0.7-1.3,1.3-1.3c0.5,0,1,0.2,1.3,0.5
		v-0.7c0-0.5-0.4-0.8-1-0.8c-0.5,0-0.8,0.2-1.2,0.5L95.8,32c0.4-0.4,0.9-0.6,1.5-0.6c0.8,0,1.5,0.4,1.5,1.3v2.7H98.2z M98.2,34.5
		v-0.7c-0.2-0.3-0.6-0.5-1.1-0.5c-0.6,0-1,0.4-1,0.8c0,0.5,0.4,0.8,1,0.8C97.6,35,98,34.9,98.2,34.5z"/>
	<path class="st0" d="M100.1,34.5V32h-0.6v-0.5h0.6v-1.1h0.6v1.1h0.8V32h-0.8v2.4c0,0.3,0.1,0.5,0.4,0.5c0.2,0,0.3-0.1,0.4-0.2
		l0.2,0.5c-0.2,0.1-0.4,0.2-0.7,0.2C100.4,35.5,100.1,35.1,100.1,34.5z"/>
	<path class="st0" d="M105,35.4v-2.5c0-0.7-0.3-0.9-0.9-0.9c-0.5,0-0.9,0.3-1.1,0.6v2.8h-0.6V30h0.6v2c0.3-0.3,0.8-0.7,1.4-0.7
		c0.8,0,1.2,0.4,1.2,1.2v2.7H105z"/>
	<path class="st0" d="M106.6,33.4c0-1.1,0.8-2,1.9-2c1.2,0,1.9,0.9,1.9,2.1v0.2h-3.1c0,0.7,0.6,1.3,1.4,1.3c0.4,0,0.9-0.2,1.2-0.5
		l0.3,0.4c-0.4,0.4-0.9,0.6-1.5,0.6C107.4,35.5,106.6,34.6,106.6,33.4z M108.5,31.9c-0.8,0-1.2,0.7-1.3,1.3h2.5
		C109.7,32.6,109.3,31.9,108.5,31.9z"/>
	<path class="st0" d="M111.3,35.4v-3.9h0.6v0.6c0.3-0.4,0.8-0.7,1.3-0.7V32c-0.1,0-0.1,0-0.2,0c-0.4,0-0.9,0.3-1.1,0.6v2.7H111.3z"
		/>
	<path class="st0" d="M113.8,30.5c0-0.2,0.2-0.4,0.4-0.4c0.2,0,0.4,0.2,0.4,0.4c0,0.2-0.2,0.4-0.4,0.4
		C114,30.9,113.8,30.8,113.8,30.5z M113.9,35.4v-3.9h0.6v3.9H113.9z"/>
	<path class="st0" d="M118.3,35.4v-2.5c0-0.7-0.4-0.9-0.9-0.9c-0.5,0-0.9,0.3-1.1,0.6v2.8h-0.6v-3.9h0.6v0.6
		c0.3-0.3,0.8-0.7,1.4-0.7c0.8,0,1.2,0.4,1.2,1.2v2.7H118.3z"/>
	<path class="st0" d="M119.9,33.4c0-1.1,0.8-2,1.9-2c1.2,0,1.9,0.9,1.9,2.1v0.2h-3.1c0,0.7,0.6,1.3,1.4,1.3c0.4,0,0.9-0.2,1.2-0.5
		l0.3,0.4c-0.4,0.4-0.9,0.6-1.5,0.6C120.7,35.5,119.9,34.6,119.9,33.4z M121.8,31.9c-0.8,0-1.2,0.7-1.3,1.3h2.5
		C123.1,32.6,122.7,31.9,121.8,31.9z"/>
	<path class="st0" d="M126.4,34.6l0.4-0.5c0.3,0.4,0.9,0.8,1.7,0.8c1,0,1.3-0.5,1.3-0.9c0-1.4-3.2-0.6-3.2-2.5
		c0-0.9,0.8-1.5,1.8-1.5c0.8,0,1.4,0.3,1.9,0.8l-0.4,0.5c-0.4-0.4-1-0.6-1.5-0.6c-0.6,0-1.1,0.3-1.1,0.8c0,1.2,3.2,0.5,3.2,2.5
		c0,0.8-0.5,1.6-2,1.6C127.6,35.5,126.9,35.1,126.4,34.6z"/>
	<path class="st0" d="M131.4,34.5V32h-0.6v-0.5h0.6v-1.1h0.6v1.1h0.8V32H132v2.4c0,0.3,0.1,0.5,0.4,0.5c0.2,0,0.3-0.1,0.4-0.2
		l0.2,0.5c-0.2,0.1-0.4,0.2-0.7,0.2C131.7,35.5,131.4,35.1,131.4,34.5z"/>
	<path class="st0" d="M133.6,35.4v-3.9h0.6v0.6c0.3-0.4,0.8-0.7,1.3-0.7V32c-0.1,0-0.1,0-0.2,0c-0.4,0-0.9,0.3-1.1,0.6v2.7H133.6z"
		/>
	<path class="st0" d="M136,33.4c0-1.1,0.8-2,1.9-2c1.2,0,1.9,0.9,1.9,2.1v0.2h-3.1c0,0.7,0.6,1.3,1.4,1.3c0.4,0,0.9-0.2,1.2-0.5
		l0.3,0.4c-0.4,0.4-0.9,0.6-1.5,0.6C136.9,35.5,136,34.6,136,33.4z M137.9,31.9c-0.8,0-1.2,0.7-1.3,1.3h2.5
		C139.2,32.6,138.8,31.9,137.9,31.9z"/>
	<path class="st0" d="M140.5,33.4c0-1.1,0.8-2,1.9-2c1.2,0,1.9,0.9,1.9,2.1v0.2h-3.1c0,0.7,0.6,1.3,1.4,1.3c0.4,0,0.9-0.2,1.2-0.5
		l0.3,0.4c-0.4,0.4-0.9,0.6-1.5,0.6C141.4,35.5,140.5,34.6,140.5,33.4z M142.4,31.9c-0.8,0-1.2,0.7-1.3,1.3h2.5
		C143.7,32.6,143.3,31.9,142.4,31.9z"/>
	<path class="st0" d="M145.4,34.5V32h-0.6v-0.5h0.6v-1.1h0.6v1.1h0.8V32H146v2.4c0,0.3,0.1,0.5,0.4,0.5c0.2,0,0.3-0.1,0.4-0.2
		l0.2,0.5c-0.2,0.1-0.4,0.2-0.7,0.2C145.7,35.5,145.4,35.1,145.4,34.5z"/>
</g>
<g>
	<path class="st0" d="M79.8,45.4l-0.5-1.2h-2.7l-0.5,1.2h-0.8l2.2-5.3h0.8l2.1,5.3H79.8z M78,40.7l-1.1,2.9h2.3L78,40.7z"/>
	<path class="st0" d="M83.9,45.4v-2.5c0-0.7-0.4-0.9-0.9-0.9c-0.5,0-0.9,0.3-1.1,0.6v2.8h-0.6v-3.9h0.6v0.6c0.3-0.3,0.8-0.7,1.4-0.7
		c0.8,0,1.2,0.4,1.2,1.2v2.7H83.9z"/>
	<path class="st0" d="M88.3,45.4v-2.5c0-0.7-0.4-0.9-0.9-0.9c-0.5,0-0.9,0.3-1.1,0.6v2.8h-0.6v-3.9h0.6v0.6c0.3-0.3,0.8-0.7,1.4-0.7
		c0.8,0,1.2,0.4,1.2,1.2v2.7H88.3z"/>
	<path class="st0" d="M96,45.4l-0.5-1.2h-2.7l-0.5,1.2h-0.8l2.2-5.3h0.8l2.1,5.3H96z M94.2,40.7l-1.1,2.9h2.3L94.2,40.7z"/>
	<path class="st0" d="M97.4,45.4v-3.9H98v0.6c0.3-0.4,0.8-0.7,1.3-0.7V42c-0.1,0-0.1,0-0.2,0c-0.4,0-0.9,0.3-1.1,0.6v2.7H97.4z"/>
	<path class="st0" d="M100.1,45.4V40h0.6v2.1c0.3-0.4,0.8-0.7,1.3-0.7c1,0,1.7,0.8,1.7,2c0,1.3-0.7,2-1.7,2c-0.5,0-1-0.3-1.3-0.7
		v0.6H100.1z M101.8,44.9c0.8,0,1.2-0.6,1.2-1.5s-0.5-1.5-1.2-1.5c-0.5,0-1,0.3-1.2,0.6v1.8C100.9,44.6,101.3,44.9,101.8,44.9z"/>
	<path class="st0" d="M104.4,43.4c0-1.1,0.7-2,1.9-2s1.9,0.9,1.9,2c0,1.1-0.7,2-1.9,2S104.4,44.5,104.4,43.4z M107.6,43.4
		c0-0.8-0.5-1.5-1.3-1.5c-0.8,0-1.3,0.7-1.3,1.5c0,0.8,0.5,1.5,1.3,1.5C107.2,44.9,107.6,44.2,107.6,43.4z"/>
	<path class="st0" d="M109.2,45.4v-3.9h0.6v0.6c0.3-0.4,0.8-0.7,1.3-0.7V42c-0.1,0-0.1,0-0.2,0c-0.4,0-0.9,0.3-1.1,0.6v2.7H109.2z"
		/>
	<path class="st0" d="M111.4,46.4l-0.3-0.2c0.3-0.2,0.5-0.5,0.5-0.7c0,0-0.1,0-0.1,0c-0.2,0-0.4-0.2-0.4-0.4s0.2-0.4,0.4-0.4
		c0.3,0,0.5,0.2,0.5,0.6C112,45.7,111.7,46.1,111.4,46.4z"/>
	<path class="st0" d="M119.7,45.4v-4.5l-1.8,4.5h-0.3l-1.8-4.5v4.5h-0.7V40h1l1.7,4.1l1.7-4.1h1v5.3H119.7z"/>
	<path class="st0" d="M121.5,40.5c0-0.2,0.2-0.4,0.4-0.4c0.2,0,0.4,0.2,0.4,0.4c0,0.2-0.2,0.4-0.4,0.4
		C121.7,40.9,121.5,40.8,121.5,40.5z M121.6,45.4v-3.9h0.6v3.9H121.6z"/>
	<path class="st0" d="M123.2,43.4c0-1.1,0.8-2,1.9-2c0.7,0,1.1,0.3,1.4,0.7l-0.4,0.4c-0.3-0.4-0.6-0.5-1-0.5c-0.8,0-1.3,0.6-1.3,1.5
		s0.5,1.5,1.3,1.5c0.4,0,0.7-0.2,1-0.5l0.4,0.4c-0.3,0.4-0.7,0.7-1.4,0.7C123.9,45.5,123.2,44.6,123.2,43.4z"/>
	<path class="st0" d="M130,45.4v-2.5c0-0.7-0.3-0.9-0.9-0.9c-0.5,0-0.9,0.3-1.1,0.6v2.8h-0.6V40h0.6v2c0.3-0.3,0.8-0.7,1.4-0.7
		c0.8,0,1.2,0.4,1.2,1.2v2.7H130z"/>
	<path class="st0" d="M131.7,40.5c0-0.2,0.2-0.4,0.4-0.4c0.2,0,0.4,0.2,0.4,0.4c0,0.2-0.2,0.4-0.4,0.4
		C131.9,40.9,131.7,40.8,131.7,40.5z M131.8,45.4v-3.9h0.6v3.9H131.8z"/>
	<path class="st0" d="M133.6,46.3l0.3-0.4c0.3,0.4,0.7,0.5,1.3,0.5c0.6,0,1.2-0.3,1.2-1.1v-0.6c-0.3,0.4-0.8,0.7-1.3,0.7
		c-1,0-1.7-0.8-1.7-2c0-1.2,0.7-2,1.7-2c0.5,0,1,0.3,1.3,0.7v-0.6h0.6v3.8c0,1.2-0.9,1.6-1.8,1.6C134.5,46.9,134,46.8,133.6,46.3z
		 M136.4,44.2v-1.7c-0.2-0.3-0.7-0.6-1.2-0.6c-0.8,0-1.2,0.6-1.2,1.5c0,0.8,0.5,1.5,1.2,1.5C135.7,44.9,136.2,44.6,136.4,44.2z"/>
	<path class="st0" d="M140.6,45.4v-0.4c-0.3,0.4-0.8,0.5-1.3,0.5c-0.6,0-1.3-0.4-1.3-1.3c0-0.9,0.7-1.3,1.3-1.3c0.5,0,1,0.2,1.3,0.5
		v-0.7c0-0.5-0.4-0.8-1-0.8c-0.5,0-0.8,0.2-1.2,0.5l-0.3-0.4c0.4-0.4,0.9-0.6,1.5-0.6c0.8,0,1.5,0.4,1.5,1.3v2.7H140.6z M140.6,44.5
		v-0.7c-0.2-0.3-0.6-0.5-1.1-0.5c-0.6,0-1,0.4-1,0.8c0,0.5,0.4,0.8,1,0.8C140,45,140.4,44.9,140.6,44.5z"/>
	<path class="st0" d="M145,45.4v-2.5c0-0.7-0.4-0.9-0.9-0.9c-0.5,0-0.9,0.3-1.1,0.6v2.8h-0.6v-3.9h0.6v0.6c0.3-0.3,0.8-0.7,1.4-0.7
		c0.8,0,1.2,0.4,1.2,1.2v2.7H145z"/>
	<path class="st0" d="M151.1,45.4V44h-2.5v-0.6l2.3-3.4h0.9v3.4h0.8V44h-0.8v1.4H151.1z M151.1,40.6l-1.9,2.8h1.9V40.6z"/>
	<path class="st0" d="M153.2,44c0-0.7,0.6-1.2,1.3-1.4c-0.6-0.2-1.2-0.6-1.2-1.3c0-1,0.9-1.4,1.8-1.4c0.9,0,1.8,0.4,1.8,1.4
		c0,0.7-0.6,1.1-1.2,1.3c0.7,0.2,1.3,0.7,1.3,1.4c0,0.9-0.9,1.4-1.9,1.4C154,45.5,153.2,44.9,153.2,44z M156.3,43.9
		c0-0.7-0.9-1-1.2-1c-0.3,0-1.2,0.3-1.2,1c0,0.6,0.6,0.9,1.2,0.9C155.7,44.9,156.3,44.5,156.3,43.9z M156.2,41.4
		c0-0.6-0.5-0.9-1.2-0.9c-0.6,0-1.2,0.3-1.2,0.9c0,0.6,0.8,0.9,1.2,0.9C155.4,42.3,156.2,42.1,156.2,41.4z"/>
	<path class="st0" d="M158.8,45.4v-4.5l-0.9,0.9l-0.4-0.4l1.3-1.4h0.6v5.3H158.8z"/>
	<path class="st0" d="M160.5,42.7c0-1.3,0.6-2.8,2-2.8c1.5,0,2,1.4,2,2.8c0,1.3-0.6,2.8-2,2.8C161.1,45.5,160.5,44,160.5,42.7z
		 M163.9,42.7c0-1.1-0.3-2.2-1.4-2.2c-1,0-1.4,1.1-1.4,2.2s0.3,2.2,1.4,2.2C163.6,44.9,163.9,43.8,163.9,42.7z"/>
	<path class="st0" d="M167.8,45.4V44h-2.5v-0.6l2.3-3.4h0.9v3.4h0.8V44h-0.8v1.4H167.8z M167.8,40.6l-1.9,2.8h1.9V40.6z"/>
</g>
<polygon class="st0" points="87.5,4.1 89,4.1 89,5.2 86.2,5.2 86.2,0.2 87.5,0.2 "/>
<polygon class="st0" points="94.3,5.2 93.1,5.2 93.1,1.3 92,1.3 92,0.2 95.4,0.2 95.4,1.3 94.3,1.3 "/>
<g>
	<path class="st0" d="M100.2,4.1h0.3c0.8,0,1.4-0.4,1.4-1.4c0-0.9-0.6-1.4-1.4-1.4h-0.3V4.1z M99,0.2h1.8c1.4,0,2.5,1.1,2.5,2.5
		c0,1.4-1.1,2.5-2.5,2.5H99V0.2z"/>
	<path class="st0" d="M78,4.1c-0.8,0-1.4-0.6-1.4-1.4c0-0.8,0.6-1.4,1.4-1.4s1.4,0.6,1.4,1.4C79.4,3.4,78.8,4.1,78,4.1 M80.8,4.7
		l-0.6-0.6c0.3-0.4,0.4-0.9,0.4-1.4C80.7,1.2,79.5,0,78,0s-2.6,1.2-2.6,2.6c0,1.5,1.2,2.6,2.6,2.6c0.5,0,1.1-0.2,1.5-0.5l0.6,0.6
		L80.8,4.7z"/>
</g>
</svg>
