<svg id="Layer_1" data-name="Layer 1" xmlns="http://www.w3.org/2000/svg" viewBox="0 0 152.79 29.63"><defs><style>.cls-1{fill:#fff;}</style></defs><title>qltd-logo-1994</title><path class="cls-1" d="M258.94,100.44h8.46v6H251.88V79.27h7.06v21.18Z" transform="translate(-192.77 -78.25)"/><path class="cls-1" d="M296.52,106.42h-7.06V85.25h-5.83v-6h18.73v6h-5.83v21.17Z" transform="translate(-192.77 -78.25)"/><path class="cls-1" d="M321.75,79.27h10a13.58,13.58,0,1,1,0,27.15h-10V79.27Zm7.06,21.18h1.58c4.21,0,7.81-2.31,7.81-7.6,0-4.86-3.21-7.6-7.74-7.6h-1.66v15.2Z" transform="translate(-192.77 -78.25)"/><path class="cls-1" d="M222.67,103.69l-3.29-3.29a14.27,14.27,0,1,0-4.1,4.27l3.2,3.2Zm-15.46-3.39a7.61,7.61,0,1,1,7.61-7.61A7.61,7.61,0,0,1,207.22,100.31Z" transform="translate(-192.77 -78.25)"/></svg>