<?xml version="1.0" encoding="utf-8"?>
<!-- Generator: Adobe Illustrator 19.2.0, SVG Export Plug-In . SVG Version: 6.00 Build 0)  -->
<svg version="1.1" id="Layer_1" xmlns="http://www.w3.org/2000/svg" xmlns:xlink="http://www.w3.org/1999/xlink" x="0px" y="0px"
	 viewBox="0 0 320 320" style="enable-background:new 0 0 320 320;" xml:space="preserve">
<style type="text/css">
	.st0{fill:#C87DC1;}
</style>
<title>35-years-background-vector-2</title>
<path class="st0" d="M0.4,160c0,88.2,71.5,159.8,159.8,159.8S319.9,248.2,319.9,160S248.4,0.2,160.2,0.2C71.9,0.2,0.4,71.8,0.4,160z
	 M118.5,222.7c0-2.5,0.9-5.2,2.6-8.1c8.6-7.1,22.1-16.7,40.5-29.1c18.4-12.3,30.3-20.5,35.5-24.5c-48-35-73.2-53.3-75.4-54.9
	c-1.8-2.4-2.6-5.2-2.6-8.3c0-3.1,1.2-5.8,3.5-8.3c2.3-2.4,4.9-3.6,7.6-3.6c2.8,0,5.2,0.6,7.4,1.7c25.8,17,54,38.1,84.6,63.5
	c3.8,2.4,5.6,5.6,5.6,9.6c0,4-1.7,7.4-5,10.2c-11.5,9-26.3,19.8-44.5,32.4c-18.2,12.6-31.9,22.5-41.2,29.8c-0.9,0.7-2.8,1-5.8,1
	c-3,0-5.9-1.3-8.8-3.8C120,227.7,118.5,225.2,118.5,222.7z"/>
</svg>
