<svg id="Layer_1" data-name="Layer 1" xmlns="http://www.w3.org/2000/svg" viewBox="0 0 13.6 40"><defs><style>.cls-1{fill:#fff;}</style></defs><title>torch-2011</title><path class="cls-1" d="M610.75,416.08a1.24,1.24,0,0,1-.64-1.07c-0.5-3.71-1-7.42-1.52-11.13-0.14-1-.27-2.09-0.42-3.13a5.12,5.12,0,0,0-.2-0.87c-0.7-2.11-1.38-4.22-2.11-6.32-0.27-.79-0.2-1.43,1-1.5-0.2-.22-0.38-0.41-0.55-0.62a6.32,6.32,0,0,1-1.33-4.87,11.3,11.3,0,0,1,3.53-6.83,20,20,0,0,1,5-3.66h0.39a1,1,0,0,1,.55,1.22,4.94,4.94,0,0,0,.23,2.58,11.45,11.45,0,0,1,1-.51,0.79,0.79,0,0,1,1.16.8,5,5,0,0,0,.49,2.19,12.44,12.44,0,0,1,1.11,4.4,8.15,8.15,0,0,1-1.51,5.33h0.56a0.84,0.84,0,0,1,.87,1.22c-0.28.87-.57,1.73-0.86,2.59-0.43,1.28-.91,2.55-1.27,3.85a21.78,21.78,0,0,0-.49,2.84c-0.42,3.09-.82,6.19-1.23,9.28-0.14,1.08-.29,2.16-0.42,3.25a1,1,0,0,1-.71,1h-2.66Zm2-37.7-0.18.08a16.58,16.58,0,0,0-3.74,3.22,9.13,9.13,0,0,0-2.36,5.45,4.35,4.35,0,0,0,4,4.91c-1.28-1.61-2.16-3.26-1.78-5.3a6.61,6.61,0,0,1,3.4-4.42c-0.56,2.15-.91,4.19.55,6.16,0.11-.7.19-1.29,0.31-1.87a3.27,3.27,0,0,1,.71-1.66c0.46,1,.93,2,1.32,3a3.14,3.14,0,0,1-.19,2.86L614.14,392a2.15,2.15,0,0,0,1.47-.83,5.6,5.6,0,0,0,1.22-3c0.29-2.37-.68-4.46-1.51-6.59-0.82.69-1.3,0.59-1.84-.36A6,6,0,0,1,612.76,378.38Zm1.94,20.9,1.86-5.58h-8.91a0.31,0.31,0,0,0,0,.1c0.58,1.76,1.17,3.52,1.76,5.28a0.36,0.36,0,0,0,.27.19h5Zm-4.91,1.61,0.4,2.9q0.69,5.06,1.39,10.12c0.08,0.59.09,0.57,0.69,0.57a0.3,0.3,0,0,0,.35-0.34c0-.48.11-1,0.18-1.43l1.38-10.4c0.06-.47.11-0.94,0.17-1.42H609.8Z" transform="translate(-604.88 -376.08)"/></svg>