<svg id="Layer_1" data-name="Layer 1" xmlns="http://www.w3.org/2000/svg" viewBox="0 0 27.96 49.92"><defs><style>.cls-1{fill:#fff;}</style></defs><title>wine-2016</title><path class="cls-1" d="M112.86,1654.93h-10.5v-10.81c5-3.72,8.16-6.39,9.53-8.17,2.5-3.26,3.28-7.82,2.3-13.56-0.75-4.41-2.43-12.2-2.5-12.53a1.74,1.74,0,0,0-1.7-1.37H91.25a1.74,1.74,0,0,0-1.7,1.37c-0.07.33-1.75,8.11-2.5,12.53-1,5.74-.21,10.3,2.3,13.56,1.37,1.78,4.49,4.46,9.53,8.17v10.81H88.38a1.74,1.74,0,0,0,0,3.48h24.48A1.74,1.74,0,1,0,112.86,1654.93Zm-20.2-43h15.92c0.53,2.48,1.63,7.76,2.18,11,0.11,0.63.19,1.25,0.25,1.84H90.23c0.06-.6.14-1.21,0.25-1.84C91,1619.72,92.13,1614.45,92.66,1612Z" transform="translate(-86.64 -1608.49)"/></svg>