<svg id="Layer_1" data-name="Layer 1" xmlns="http://www.w3.org/2000/svg" viewBox="0 0 49.9 35.48"><defs><style>.cls-1{fill:#fff;}</style></defs><title>www-199?</title><path class="cls-1" d="M980.21,1963a1,1,0,0,0,1-1v-22.87a0.51,0.51,0,0,1,.51-0.51h37a0.51,0.51,0,0,1,.51.51V1962a1,1,0,0,0,2,0v-22.87a2.51,2.51,0,0,0-2.51-2.51h-37a2.52,2.52,0,0,0-2.51,2.51V1962A1,1,0,0,0,980.21,1963Z" transform="translate(-975.25 -1936.58)"/><path class="cls-1" d="M1024.15,1965.35h-21.37a1,1,0,0,0-1,1v0.54h-3.16v-0.54a1,1,0,0,0-1-1H976.25a1,1,0,0,0-1,1v3a2.67,2.67,0,0,0,2.67,2.67h44.57a2.67,2.67,0,0,0,2.67-2.67v-3A1,1,0,0,0,1024.15,1965.35Zm-1,4a0.67,0.67,0,0,1-.67.67H977.91a0.67,0.67,0,0,1-.67-0.67v-2h19.41a1.91,1.91,0,0,0,1.87,1.54h3.35a1.91,1.91,0,0,0,1.87-1.54h19.4v2Z" transform="translate(-975.25 -1936.58)"/><path class="cls-1" d="M992.7,1949.61l-0.92,2.88-0.93-2.87A0.9,0.9,0,0,0,990,1949h-0.08a0.89,0.89,0,0,0-.86.66l-0.92,2.86-0.91-2.86a0.87,0.87,0,0,0-.83-0.66,0.81,0.81,0,0,0-.84.8,1.26,1.26,0,0,0,.08.4l1.53,4.34a1,1,0,0,0,1,.72,0.92,0.92,0,0,0,.89-0.7l0.93-2.82,0.92,2.81a0.93,0.93,0,0,0,.9.7h0a1,1,0,0,0,.91-0.72l1.56-4.39a1.35,1.35,0,0,0,.06-0.35,0.8,0.8,0,0,0-.82-0.8A0.85,0.85,0,0,0,992.7,1949.61Z" transform="translate(-975.25 -1936.58)"/><path class="cls-1" d="M1001.81,1949.61l-0.92,2.88-0.93-2.87a0.9,0.9,0,0,0-.86-0.66H999a0.89,0.89,0,0,0-.86.66l-0.92,2.86-0.91-2.86a0.87,0.87,0,0,0-.83-0.66,0.81,0.81,0,0,0-.84.8,1.26,1.26,0,0,0,.08.4l1.53,4.34a1,1,0,0,0,1,.72,0.92,0.92,0,0,0,.89-0.7l0.93-2.82,0.92,2.81a0.93,0.93,0,0,0,.9.7h0a1,1,0,0,0,.91-0.72l1.56-4.39a1.34,1.34,0,0,0,.06-0.35,0.8,0.8,0,0,0-.82-0.8A0.85,0.85,0,0,0,1001.81,1949.61Z" transform="translate(-975.25 -1936.58)"/><path class="cls-1" d="M1011.73,1949a0.85,0.85,0,0,0-.83.65l-0.92,2.88-0.93-2.87a0.9,0.9,0,0,0-.86-0.66h-0.08a0.89,0.89,0,0,0-.86.66l-0.92,2.86-0.91-2.86a0.87,0.87,0,0,0-.83-0.66,0.81,0.81,0,0,0-.84.8,1.27,1.27,0,0,0,.08.4l1.53,4.34a1,1,0,0,0,1,.72,0.92,0.92,0,0,0,.89-0.7l0.93-2.82,0.92,2.81a0.93,0.93,0,0,0,.9.7h0a1,1,0,0,0,.91-0.72l1.56-4.39a1.35,1.35,0,0,0,.06-0.35A0.8,0.8,0,0,0,1011.73,1949Z" transform="translate(-975.25 -1936.58)"/><path class="cls-1" d="M1013.46,1955.19a0.94,0.94,0,0,0,1-.95v-0.11a1,1,0,0,0-1.92,0v0.11A0.94,0.94,0,0,0,1013.46,1955.19Z" transform="translate(-975.25 -1936.58)"/></svg>